<svg xmlns="http://www.w3.org/2000/svg" width="8cm" height="10.6cm" viewBox="0 0 226.77 300.53"><defs><style>.cls-1,.cls-7{fill:#f2f2f2;}.cls-2{fill:#fff;}.cls-3{fill:#f0f4d1;stroke:#bbd178;}.cls-3,.cls-5,.cls-8{stroke-miterlimit:10;}.cls-3,.cls-8{stroke-width:3px;}.cls-4{fill:#bbd178;}.cls-5{fill:#2a1a0d;stroke:#2a1a0d;}.cls-6{fill:#5e771c;}.cls-7{opacity:0.3;}.cls-8{fill:none;stroke:#e6e6e6;stroke-linecap:round;}</style></defs><title>gin-tonic</title><g id="drinks"><path class="cls-1" d="M113.89,290.53c-110-5-43-147-43-147h85s67,142-43,147"/><path class="cls-2" d="M119.34,204.7s-9.42-7.34-12.82-9.4c-1.77-1.06-5.6-2.65-7.42-3.63-2.08-1.11-3.88-3.57-3.16-5.82,1-3.23,3.24-5.69,5.79-10.92,3.63-7.42,5.73-11.73,8.23-13.27,3.12-1.93,9.5,2,11.51,3.26,0,0,9.71,7.71,13.11,10.06,1.94,1.34,5.69,6.42,3.52,9.92L128,199.41l-2.72,3.9A4.31,4.31,0,0,1,119.34,204.7Z"/><path class="cls-2" d="M168.57,231.49s-10,6.46-13.12,9c-1.59,1.32-4.36,4.4-5.88,5.8-1.74,1.59-4.67,2.47-6.55,1-2.7-2-4.29-4.95-8.37-9.09-5.8-5.89-9.17-9.29-9.8-12.16-.78-3.6,5.07-8.3,6.91-9.78,0,0,10.49-6.61,13.83-9,1.91-1.39,7.95-3.24,10.53,0l10.32,14.38,2.78,3.86A4.3,4.3,0,0,1,168.57,231.49Z"/><path class="cls-2" d="M96.5,204.46s-11.88-1.27-15.85-1.23c-2.07,0-6.16.69-8.22.82-2.36.15-5.19-1-5.76-3.29-.82-3.28-.24-6.54-.82-12.33-.82-8.22-1.31-13,0-15.61,1.64-3.29,9.15-3.29,11.51-3.29,0,0,12.31,1.44,16.44,1.64,2.35.12,8.22,2.47,8.22,6.58l-1,17.67-.27,4.75A4.3,4.3,0,0,1,96.5,204.46Z"/><circle class="cls-3" cx="83.62" cy="235.53" r="26.5"/><path class="cls-4" d="M73.45,244.07s10.37-2.26,9.48,1.69S73.45,244.07,73.45,244.07Z"/><path class="cls-4" d="M82.79,239.79c1,3.93-9.22,2.76-9.22,2.76s8.25-6.68,9.22-2.76"/><path class="cls-4" d="M93.18,242.39s-10.53,1.36-9.29-2.49S93.18,242.39,93.18,242.39Z"/><path class="cls-4" d="M83.79,245.84c-.64-4,9.42-2,9.42-2s-8.79,6-9.42,2"/><path class="cls-4" d="M95.09,240.75s-7.15-7.85-3.28-9.05S95.09,240.75,95.09,240.75Z"/><path class="cls-4" d="M86.71,234.8c2.91-2.81,7,6.61,7,6.61s-9.92-3.8-7-6.61"/><path class="cls-4" d="M83.76,224.5s6.45,8.44,2.49,9.3S83.76,224.5,83.76,224.5Z"/><path class="cls-4" d="M91.45,230.91c-3.14,2.55-6.41-7.18-6.41-7.18s9.56,4.64,6.41,7.18"/><path class="cls-4" d="M81.39,223.6s-3.23,10.12-6.2,7.37S81.39,223.6,81.39,223.6Z"/><path class="cls-4" d="M80.42,233.83c-3.89-1.12,2.22-9.36,2.22-9.36s1.67,10.48-2.22,9.36"/><path class="cls-4" d="M73,241.54s4.09-9.81,6.81-6.81S73,241.54,73,241.54Z"/><path class="cls-4" d="M74.69,231.67c3.78,1.45-3,9.14-3,9.14s-.76-10.59,3-9.14"/><ellipse class="cls-5" cx="70.4" cy="221.19" rx="3.02" ry="3.16"/><ellipse class="cls-5" cx="65.54" cy="213.9" rx="2.75" ry="2.87"/><ellipse class="cls-5" cx="143.1" cy="161.31" rx="3.02" ry="3.16"/><path class="cls-6" d="M133.83,157.07c-.16-2.9-.82-6.36-1-9.25a31.22,31.22,0,0,0-1.2-8.29,20.75,20.75,0,0,0-6.36-8.91,30.87,30.87,0,0,0-12.07-6.43l8,10.48a75.78,75.78,0,0,1,5.26,7.45c3.72,6.28,5.46,14.13,6.94,21.27"/><path class="cls-6" d="M134.2,157.07c-.23-3.71-.83-7.4-1.08-11.12a21.48,21.48,0,0,0-3-10.46c-3.75-5.83-10.19-9.82-16.78-11.66-.28-.08-.63.28-.42.55l7.45,9.7a72.77,72.77,0,0,1,6.37,9.13c3.44,6.25,4.95,13.36,6.38,20.28.1.47.83.27.73-.2-1.42-6.85-2.93-13.87-6.26-20.09a69.67,69.67,0,0,0-6.42-9.31l-7.6-9.89-.43.55c6.51,1.82,12.95,5.81,16.55,11.67,2,3.27,2.53,6.9,2.75,10.66.21,3.42.82,6.78,1,10.19,0,.48.78.49.75,0Z"/><path class="cls-6" d="M136.05,151.5c1.65-2.3.67-4.48.85-7.31a45.21,45.21,0,0,0-.17-5.07,44.93,44.93,0,0,1,1.77-14.81,8.67,8.67,0,0,1,1.48-3.16,3.33,3.33,0,0,1,3.1-1.25c-4.29,8.72-6.23,20-6.29,29.74"/><path class="cls-6" d="M136.37,151.69c1.32-2,.95-4,.89-6.27,0-1.41.06-2.81,0-4.23s-.19-2.94-.18-4.41a44.35,44.35,0,0,1,.94-9c.53-2.5,1.36-8,5-7.55l-.22-.55c-4.49,9.21-6.25,19.75-6.35,29.93a.38.38,0,0,0,.75,0c.1-10,1.82-20.46,6.24-29.55.1-.19,0-.52-.22-.55-2.46-.34-4,1.62-4.74,3.73a39.85,39.85,0,0,0-1.92,9.3,76,76,0,0,0,0,9.78c0,1.54,0,3.06.06,4.61a6.56,6.56,0,0,1-.88,4.35c-.27.4.38.78.65.38Z"/><path class="cls-6" d="M132.2,185.49c.18-2.49,4-8.62,5.63-10.5,3.9-4.44,8.16-8.64,11.32-13.65s5.13-11.08,3.88-16.87c1.47,9.71-4.15,19.08-10.64,26.44-4,4.57-8.68,9.14-9.76,15.13"/><path class="cls-6" d="M132.58,185.49a12,12,0,0,1,1.59-4.15,41.77,41.77,0,0,1,2.6-4.31c2.28-3.35,5.36-6.15,8-9.23,5.52-6.46,10.42-14.58,8.63-23.43-.09-.48-.78-.26-.72.2,1.19,8.43-2.88,16.41-7.9,22.89-4.51,5.82-11,10.89-12.51,18.48-.09.47.63.67.73.2,1.57-8.07,8.94-13.43,13.54-19.79s8-14,6.86-22l-.72.2c2,9.72-4.39,18.25-10.49,25a64.43,64.43,0,0,0-6.8,8.15c-1.43,2.25-3.28,5-3.55,7.73-.05.48.7.47.75,0Z"/><path class="cls-6" d="M132,180.75c-.11-3.6-2.12-6.85-4.34-9.68-6.76-8.68-16.27-15.87-19.22-26.47a22.12,22.12,0,0,0,5.1,21.31c3,3.16,6.93,5.32,10.34,8.07s8.13,7.14,8.36,11.51"/><path class="cls-6" d="M132.34,180.75c-.2-3.75-2.14-7-4.39-9.87s-4.66-5.47-7.09-8.11c-5-5.4-10-11.05-12.1-18.27a.38.38,0,0,0-.72,0,22.7,22.7,0,0,0,2.35,18c3.6,5.95,10.06,8.92,15.11,13.41,2.78,2.48,6,5.69,6.33,9.61,0,.48.79.48.75,0-.23-2.86-1.89-5.3-3.75-7.38a44.41,44.41,0,0,0-7.17-6.24c-3-2.15-6.11-4.15-8.54-6.93a21.77,21.77,0,0,1-4.36-20.24H108c1.92,6.7,6.37,12.11,11,17.17,2.4,2.63,4.87,5.22,7.14,8,2.61,3.15,5.22,6.69,5.44,10.92,0,.48.77.48.75,0Z"/><path class="cls-6" d="M132.22,210.79a14.54,14.54,0,0,0,8-7.91,17.18,17.18,0,0,0,.58-11.34c-.8-2.81-2.27-5.48-2.38-8.4l3.71,10.54c.95,2.71,1.89,5.79.59,8.35-1,2-3.22,3.17-5.23,4.27q-2.79,1.53-5.43,3.28"/><path class="cls-6" d="M132.32,211.15a15.27,15.27,0,0,0,9.13-10.82,17.84,17.84,0,0,0,0-8.06c-.72-3.1-2.39-5.91-2.59-9.13l-.73.1,2.82,8c.89,2.51,2.09,5.16,2.1,7.87,0,3-1.95,4.73-4.33,6.1s-4.58,2.58-6.78,4c-.4.26,0,.91.38.65,2.42-1.6,5-2.9,7.45-4.43,2-1.23,3.64-2.88,4-5.31.36-2.65-.72-5.29-1.58-7.73L138.8,183c-.13-.37-.76-.34-.74.1.16,2.56,1.18,4.85,2,7.24a18.14,18.14,0,0,1,.93,8.33,14.67,14.67,0,0,1-8.87,11.72c-.44.18-.24.9.2.72Z"/><path class="cls-6" d="M130,230.52c-.28-3.13-1.79-6-3.32-8.74-2.71-4.88-5.62-9.73-9.57-13.68s-9.1-6.94-14.67-7.31a75.07,75.07,0,0,1,21.47,18.48c.93,1.17,1.83,2.37,2.72,3.57l4.18,5.62"/><path class="cls-6" d="M130.32,230.52c-.41-3.83-2.36-7.18-4.23-10.47a67.22,67.22,0,0,0-6.12-9.27c-4.4-5.42-10.44-9.8-17.58-10.36a.38.38,0,0,0-.19.7,74.88,74.88,0,0,1,15.44,11.76c4.84,4.79,8.75,10.33,12.8,15.76.28.39.93,0,.65-.37-4.09-5.49-8-11.09-12.92-15.92a75.73,75.73,0,0,0-15.59-11.88l-.19.7c6.94.54,12.78,4.88,17,10.14a65.5,65.5,0,0,1,5.79,8.74c1.87,3.27,3.93,6.64,4.34,10.47.05.47.8.48.75,0Z"/><path class="cls-6" d="M117.43,250.21c5.73.35,11.77.64,16.91-1.92a25.13,25.13,0,0,0,7.65-6.43,23,23,0,0,0,4.6-7.53,11,11,0,0,0-.48-8.62,11.47,11.47,0,0,1-2.42,8.24,34.15,34.15,0,0,1-6.33,6.09c-5.31,4.28-12.23,8.87-19,9.91"/><path class="cls-6" d="M117.43,250.59a48.11,48.11,0,0,0,12.17-.33,20.13,20.13,0,0,0,9.92-5.23c5-4.74,10.59-12.39,6.92-19.51-.16-.31-.75-.18-.7.19.84,7-5.64,11.82-10.55,15.55s-10.63,7.29-16.9,8.33c-.48.07-.27.8.2.72,6.64-1.09,12.6-4.92,17.83-9,4.89-3.79,11-8.66,10.17-15.62l-.7.19c3.61,7-2.38,14.71-7.42,19.16a19.25,19.25,0,0,1-9.81,4.63,51.12,51.12,0,0,1-11.13.15c-.48,0-.48.72,0,.75Z"/><path class="cls-6" d="M113.25,252.83a14.54,14.54,0,0,0,3.74-5.05c.82-2.32.43-4.87,0-7.3a25.46,25.46,0,0,0-1.91-7.15,8.62,8.62,0,0,0-5.37-4.77,32.74,32.74,0,0,1,3.13,17.67c-.21,2-.16,5.52.88,7.25"/><path class="cls-6" d="M113.51,253.09c1.68-1.68,3.4-3.47,4-5.83.67-2.54.13-5.22-.3-7.74-.78-4.57-2.37-9.93-7.4-11.32a.38.38,0,0,0-.42.55,32.78,32.78,0,0,1,3.25,14.16c0,3.5-1,7.52.76,10.76.23.43.88.05.65-.38a11.37,11.37,0,0,1-.92-5.83c.08-2.12.32-4.19.21-6.32a33.55,33.55,0,0,0-3.31-12.77l-.42.55c4.77,1.32,6.14,6.51,6.87,10.79.4,2.32.91,4.8.36,7.14s-2.25,4.07-3.89,5.71c-.34.34.19.88.53.53Z"/><path class="cls-4" d="M98.61,281.59a26.51,26.51,0,0,1,3.31-14.19c2.29-4.08,5.7-7.27,9.28-10.21s7.24-5.57,10.43-8.84a33.78,33.78,0,0,0,7.47-12,69.73,69.73,0,0,0,3.33-14.63,156.12,156.12,0,0,0,1.48-16.86c.38-11.49-1.06-23-.31-34.48.68-10.52,3.64-21.48,11.36-29.07,1.38-1.36-.74-3.48-2.12-2.12-15.87,15.6-12,39.58-11.84,59.6a154.78,154.78,0,0,1-.86,17.22A96.66,96.66,0,0,1,127.37,232a32.43,32.43,0,0,1-6.54,12.82c-3.1,3.54-6.89,6.36-10.54,9.28-4.1,3.3-8.08,6.84-10.75,11.44a29.46,29.46,0,0,0-3.93,16.07c.09,1.92,3.09,1.93,3,0Z"/><path class="cls-7" d="M113.89,290.53c-110-5-43-147-43-147h85s67,142-43,147"/><path class="cls-8" d="M74.89,133.53s-71,152,39,157h-1c110-5,39-157,39-157"/></g></svg>
