<svg xmlns="http://www.w3.org/2000/svg" width="8cm" height="10.6cm" viewBox="0 0 226.77 300.53"><defs><style>.cls-1,.cls-5{fill:#fff5de;}.cls-2{fill:#ffeab3;}.cls-3{fill:#f8b54a;}.cls-4{fill:#fff;}.cls-5{opacity:0.2;}.cls-6{fill:#e6e6e6;}.cls-7{fill:none;stroke:#e6e6e6;stroke-linecap:round;stroke-miterlimit:10;stroke-width:3px;}</style></defs><title>gin-french75</title><g id="drinks"><path class="cls-1" d="M156.5,290.53s-31.67-2-42.23-2c-11,0-44,2-44,2,0-1.33,2.61-2.93,6-4,7.63-2.38,14-2.65,18.57-4s9.89-5.67,12.48-11.94c4.61-11.18,4.41-28.4,3.77-44.95-.59-15.19,0-24.24-1.75-34-1.81-10.21-15.82-12.89-23.78-22.84s-6.64-31.17-6.64-31.17l4-100.16h61l4,100.16s1.33,21.22-6.63,31.17-21.75,11.63-23.93,22.84c-1.86,9.58-1,19.39-1.58,34-.68,16.56-1,33.81,3.56,44.95A20.9,20.9,0,0,0,132,282.57c4.56,1.33,10.94,1.6,18.57,4C153.89,287.6,156.5,289.2,156.5,290.53Z"/><path class="cls-2" d="M139.59,51.46c-.67,2.11-5.78,3.87-11.4,8.61-.86.72-1.73,1.51-2.6,2.39-3.94,4-4.77,12.7-8,17a3.65,3.65,0,0,1-2.46,1.48c-4.13-.15-9.08-4.1-9.51-4.46h0c-1.37-1.45-1.48-2.14,0-8,1.58-6.26,7.71-11.72,11.8-13.89l.2-.11a11.36,11.36,0,0,0,4-5c.63-1.9,1.2-2.81,1-4l-1-2A2.15,2.15,0,0,0,120,41.63c-2.26-.71-6.44.89-9.65,2.65-2.34,1.29-4.17,4-5.87,7l0,0c-2.48,4.34-4.71,9.08-7.9,10.15-2.79.94-11.22-3-11-5a.13.13,0,0,1,0-.06c.52-4.41,4.48-11.66,10.54-17.47a33.75,33.75,0,0,1,12.29-7.74A23.29,23.29,0,0,1,116,29.94a21.74,21.74,0,0,1,4.62.52l.43.11C129.61,33,130.45,49.84,130.5,51v.06S140.31,49.18,139.59,51.46Z"/><path class="cls-3" d="M107.59,42.46c-.72,2.39-1.78,5.62-3.08,8.82l0,0c-2.48,4.34-4.71,9.08-7.9,10.15-2.79.94-11.22-3-11-5a.13.13,0,0,1,0-.06c2-2.21,6.69-7.58,9-12.94a29.31,29.31,0,0,0,1.55-4.53q2-7.63-1.55-13.47c-3-5-2-11-2-10s7.77-2.31,11,2c1.87,2.5,4.13,7.72,4.84,13.73A27.84,27.84,0,0,1,107.59,42.46Z"/><path class="cls-3" d="M130.5,51a47.15,47.15,0,0,1-1.11,4.95c-.34,1.23-.75,2.63-1.2,4.13-1.46,4.81-3.43,10.57-5.6,14.39-1.59,2.8-3,5-5,6a5,5,0,0,1-2.46.48c-4.13-.15-9.08-4.1-9.51-4.46.26.12,2.26.88,5-4,2.28-4.13,5.06-12.22,6.8-17.89.49-1.62.91-3,1.2-4.11A40.39,40.39,0,0,0,120,41.63c.24-6.31-1.5-10.62-4.06-11.69a21.74,21.74,0,0,1,4.62.52l.43.11C130,32.79,132.18,41.12,130.5,51Z"/><ellipse class="cls-4" cx="113.08" cy="153.78" rx="2.37" ry="2.32"/><ellipse class="cls-4" cx="120.13" cy="140.32" rx="2.37" ry="2.32"/><ellipse class="cls-4" cx="108.87" cy="142.27" rx="1.6" ry="1.64" transform="translate(-70.09 150.39) rotate(-55.18)"/><ellipse class="cls-4" cx="116.39" cy="131.43" rx="1.11" ry="0.98"/><ellipse class="cls-4" cx="139.69" cy="100.21" rx="2.37" ry="2.32"/><ellipse class="cls-4" cx="120.21" cy="79.2" rx="2.37" ry="2.32"/><ellipse class="cls-4" cx="129.26" cy="66.73" rx="2.37" ry="2.32"/><ellipse class="cls-4" cx="119" cy="69.69" rx="1.64" ry="1.6"/><ellipse class="cls-4" cx="123.53" cy="56.85" rx="1.11" ry="0.98"/><path class="cls-5" d="M156.5,290.53s-31.67-2-42.23-2c-11,0-44,2-44,2,0-1.33,2.61-2.93,6-4,7.63-2.38,14-2.65,18.57-4s9.89-5.67,12.48-11.94c4.61-11.18,4.41-28.4,3.77-44.95-.59-15.19,0-24.24-1.75-34-1.81-10.21-15.82-12.89-23.78-22.84s-6.64-31.17-6.64-31.17l4-100.16h61l4,100.16s1.33,21.22-6.63,31.17-21.75,11.63-23.93,22.84c-1.86,9.58-1,19.39-1.58,34-.68,16.56-1,33.81,3.56,44.95A20.9,20.9,0,0,0,132,282.57c4.56,1.33,10.94,1.6,18.57,4C153.89,287.6,156.5,289.2,156.5,290.53Z"/><path class="cls-6" d="M141.25,168.83c-8,9.95-21.75,11.63-23.93,22.84-1.86,9.58-1,19.39-1.58,34-.66,16-1.07,32.53,3.14,43.68,2.63,7,8.3,11.81,13.08,13.21,4.56,1.33,10.94,1.6,18.57,4,3.36,1.05,6,2.65,6,4,0,0-32.34-2-43.11-2s-43.12,2-43.12,2c0-1.33,2.61-2.93,6-4,7.63-2.38,14-2.65,18.57-4,4.72-1.38,10.35-6.26,13-13.21,4.24-11.19,3.88-27.75,3.27-43.68-.59-15.19,0-24.24-1.75-34-1.81-10.21-15.82-12.89-23.78-22.84,0,0,16.08,11.63,28,11.63C125.62,180.46,141.25,168.83,141.25,168.83Z"/><path class="cls-7" d="M143.9,24.23l4,113.43s1.33,21.22-6.63,31.17S117.38,183,117,194c-.7,20.54-5.07,55.37,2.39,76,2.39,6.6,7.79,11.23,12.57,12.63,4.56,1.33,10.94,1.6,18.57,4,3.36,1.05,6,2.65,6,4,0,0-32.34-2-43.11-2s-43.12,2-43.12,2c0-1.33,2.61-2.93,6-4,7.63-2.38,14-2.65,18.57-4,4.8-1.4,10.19-6,12.58-12.63,7.42-20.63,3.13-55.47,2.79-76-.18-11-16.69-15.18-24.65-25.13s-6.64-31.17-6.64-31.17l4-113.43"/></g></svg>
