<svg xmlns="http://www.w3.org/2000/svg" width="8cm" height="10.6cm" viewBox="0 0 226.77 300.53"><defs><style>.cls-1,.cls-7{fill:#ffeab3;}.cls-2{fill:#f0f4d1;stroke:#bbd178;}.cls-2,.cls-8{stroke-miterlimit:10;stroke-width:3px;}.cls-3{fill:#d3e1a3;}.cls-4{fill:#bbd178;}.cls-5{fill:#5e771c;}.cls-6{fill:#fff;}.cls-7{opacity:0.3;}.cls-8{fill:none;stroke:#e6e6e6;stroke-linecap:round;}</style></defs><title>gin-hass</title><g id="drinks"><path class="cls-1" d="M167.47,164.51l-8.3,120.74a5.91,5.91,0,0,1-6.06,5.28H73.66a5.89,5.89,0,0,1-6-5.28L59.3,164.51"/><path class="cls-2" d="M125.76,197.65A39.25,39.25,0,0,1,78.4,135.18c.65-.54,1.32-1.07,2-1.56"/><path class="cls-3" d="M99.64,164.77l-.88.28c-.72.23-17.56,5.44-26.41,3.43-3.52-.81-5-3.89-4.32-9.16a10.18,10.18,0,0,1,3.41-6.78,5.58,5.58,0,0,1,4.34-1.11c9,1.28,22.57,12.28,23.14,12.76Z"/><path class="cls-3" d="M82.21,136.17l18,25.37c-1.59-.84-16.3-8.77-21-16.17C77.35,142.41,78.36,139.32,82.21,136.17Z"/><path class="cls-3" d="M106.48,170.44,124,195.12a9.56,9.56,0,0,1-6.41,1.83,5.6,5.6,0,0,1-3.86-2.28C109,188.41,107,174.56,106.48,170.44Z"/><path class="cls-3" d="M103.26,169.25l.28.88c.22.71,5.44,17.56,3.43,26.4a5.23,5.23,0,0,1-2.06,3.24q-2.37,1.68-7.1,1.09A10.22,10.22,0,0,1,91,197.45a5.64,5.64,0,0,1-1.11-4.34c1.28-9,12.28-22.57,12.76-23.14Z"/><path class="cls-3" d="M100.53,167.76l-.43.83c-.33.64-8.09,15.33-15.55,20.62l-.69.46c-3.07,1.93-6.28.78-9.54-3.41a10.18,10.18,0,0,1-2.38-7.2,5.56,5.56,0,0,1,2.28-3.86c7.24-5.42,24.64-7.27,25.38-7.34Z"/><path class="cls-4" d="M146.45,129.6c2.89,11.68-3.85,22.66-8.82,32.7s-10.84,20-15.54,30.33a103.2,103.2,0,0,0-6.42,18c-.46,1.87,2.44,2.67,2.9.8,2.77-11.3,8-21.67,13.47-31.87,2.74-5.15,5.5-10.28,8.08-15.51s5.51-10.48,7.54-16c2.23-6.12,3.26-12.78,1.68-19.18-.46-1.88-3.36-1.08-2.89.79Z"/><path class="cls-5" d="M118.09,202l-1.63-1.62a.69.69,0,0,1-.13-.77l.58-1.14a.69.69,0,0,0-.13-.77L115.12,196h1l-1.43-1.43a.67.67,0,0,1,.11-1l2.13-1.43a.63.63,0,0,0,.26-.34l.93-2.78,1,1v-3.85a.59.59,0,0,1,.07-.29l.72-1.43a.69.69,0,0,0-.13-.77l-1.19-1.19a.66.66,0,0,1,0-.94l1-1a.67.67,0,0,0-.1-1l-1.84-1.23a.66.66,0,0,1-.23-.85l.53-1a.69.69,0,0,0-.13-.77l-2-2a.67.67,0,0,1,.18-1.07l.14-.07a.67.67,0,0,0,.08-1.15l-2-1.36.53-.53a.66.66,0,0,0,0-.94l-1.06-1.06a.66.66,0,0,1,0-.94l.06-.06a.66.66,0,0,0,0-.94L111.12,163h1l-2-3h1l-1-3h1v-1.08a.67.67,0,0,1,.88-.63l1.24.42a.67.67,0,0,0,.88-.64V154l2.53,2.53a.66.66,0,0,0,.94,0l.53-.53.85,2.54a.67.67,0,0,0,.63.46h.85a.67.67,0,0,1,.67.66v1.26a.66.66,0,0,0,1,.6l.26-.13a.66.66,0,0,1,1,.46l.72,3.61a.68.68,0,0,0,.66.54h.47a.67.67,0,0,1,.62.91l-1.41,3.52a.66.66,0,0,0,.32.84l.86.43a.66.66,0,0,1,.29.89l-.55,1.11a.7.7,0,0,0,0,.6l.73,1.45a.65.65,0,0,1,0,.51l-.62,1.86a.67.67,0,0,0,.63.88h0a.66.66,0,0,1,.6,1l-1,2.07a.67.67,0,0,0,.6,1h.92l-2.53,2.53a.66.66,0,0,0,0,.94l.3.3a.63.63,0,0,1,.19.55l-.37,3.15a.61.61,0,0,1,0,.18l-4.84,11.58a.67.67,0,0,1-1,.28l-.64-.48A.23.23,0,0,1,118.09,202Z"/><path class="cls-5" d="M129.62,171.51l-1-5h1l-2-3h1l-2-2h2l-3-3h2l-2.13-2.13a.51.51,0,0,1,.36-.87h.54a.51.51,0,0,0,.36-.87l-2.13-2.13h1l-1-1h1l-1-2h1l-2-3h1l-1-2h1l-1-2h1l-4-4a.46.46,0,0,1-.07-.07l-2-3h1l-3-2h1l-3-2h1l-2-2h1l-2-1h1l-1-1h1l-1-1h1v-1l1,1v-1l2,1v-1l2,1v-1l1,2v-1l1,2,1-1,1,2v-1l1,2v-1l1,2,1-1v3l1-1v2l1-1,1,3,1-1,1,3,1-1v3l1-1v3l1-1v3l1-1v3l1-1v3l1-1-1,4h1v2h1l-1,2h1v2h1v3l-5,10,0,0-2.36,3.93a.51.51,0,0,1-.93-.14Z"/><path class="cls-5" d="M131.7,180.32l2.27.26a.67.67,0,0,0,.68-.37l.55-1.15a.68.68,0,0,1,.68-.38l2.32.27-.61-.78,2,.23a.67.67,0,0,0,.74-.71l-.17-2.53a.68.68,0,0,1,.11-.42l1.63-2.43-1.4-.16,3-2.37a.72.72,0,0,0,.19-.24l.69-1.44a.67.67,0,0,1,.68-.37l1.66.19a.68.68,0,0,0,.75-.58l.17-1.33a.68.68,0,0,1,.87-.56l2.07.67a.67.67,0,0,0,.81-.35l.51-1.05a.67.67,0,0,1,.68-.37l2.8.32a.67.67,0,0,0,.73-.79l0-.17A.67.67,0,0,1,157,163l2.32.75.09-.74a.68.68,0,0,1,.74-.58l1.48.17a.67.67,0,0,0,.74-.58v-.08a.66.66,0,0,1,.74-.58l3.53.4-.61-.78,3.58-.29-.61-.78,3-1.07-.6-.78.84-.66a.66.66,0,0,0,0-1.07l-1.09-.71a.66.66,0,0,1,0-1.07l.85-.67-3.53-.4a.65.65,0,0,1-.57-.73l.09-.74-2.52.92a.68.68,0,0,1-.74-.21l-.52-.67a.65.65,0,0,0-.92-.1l-1,.77a.66.66,0,0,1-1.06-.38l-.05-.28a.66.66,0,0,0-.95-.45l-3.28,1.67a.66.66,0,0,1-.82-.18l-.28-.36a.67.67,0,0,0-1.1.08L152.73,156a.67.67,0,0,1-.86.27l-.86-.4a.67.67,0,0,0-.88.32l-.54,1.11a.66.66,0,0,1-.47.37l-1.58.33a.69.69,0,0,0-.43.29L146,160A.67.67,0,0,1,145,160h0a.66.66,0,0,0-1.12.13l-1,2.08a.66.66,0,0,1-1.12.13l-.56-.71-.46,3.52a.67.67,0,0,1-.74.58l-.42,0a.7.7,0,0,0-.55.19l-2.25,2.23a.72.72,0,0,0-.11.15l-6.18,10.9a.64.64,0,0,0,.39.95l.78.21Z"/><path class="cls-5" d="M147,144.72l-1.3,5.48-3.08,5.31a37.13,37.13,0,0,1-6-9c-3-6-8-13-10-14s0-4,0-4l2,1v-1l2,2,1-1,3,3v-2l2,3,1-2,2,4,1-2v3l1-1,1,3h1v2h1v3l1-1v2l1-1Z"/><path class="cls-5" d="M151,141.69l.11.06,1.56.76v-2l1,3,1-2,.76,2.27a.66.66,0,0,0,.93.38l.62-.31a.66.66,0,0,1,.93.39l.76,2.27.41-.81a.67.67,0,0,1,1.19,0l.4.81.53-.53a.66.66,0,0,1,.94,0l.88.87a.65.65,0,0,0,1.06-.17l.29-.58a.67.67,0,0,1,.9-.29l1.4.7-.71-2.13a.66.66,0,0,1,.63-.87h1.08l-1.23-1.85a.64.64,0,0,1,.33-.94c.22-.11.29-.43-.1-1.21a4.64,4.64,0,0,0-1.91-1.77.66.66,0,0,1,.34-1.23h8.57c3.76,0,7.53-2.66,8-3l.08-.07,1-1-2-1h1l-3-1,1-1-2.12.71a.67.67,0,0,1-.88-.64v-.15a.67.67,0,0,0-.88-.63l-2.12.71,1-2-4,1,1-2-4,1,1-1-4,1,1-1-4,1v-1l-3,2v-1.08a.67.67,0,0,0-.88-.63l-.4.13a.66.66,0,0,1-.79-1,26.06,26.06,0,0,0,2.07-4.47c1-3,2-8,3-10a11,11,0,0,0,.55-1.25.66.66,0,0,0-1-.79l-1.56,1v-1l-2,2v-2l-1,1v-3l-1,1-1-3-.66.66a.67.67,0,0,1-.77.12l-1-.48a.67.67,0,0,0-.9.29l-.7,1.41v-1l-2,3v-1l-1,3h-1l.52,1a.67.67,0,0,1-.6,1,.66.66,0,0,0-.63.87l.71,2.13h-1l.93,1.86a.59.59,0,0,1,.07.29v2.85l-2-5-1,2-1-4-1,1-1-3-1,1-1.36-2.05a.67.67,0,0,0-1.15.07l-.49,1-1-3-.4.81a.67.67,0,0,1-1.19,0l-.41-.81v1L132.09,109a.66.66,0,0,0-.94,0l-.06.06a.66.66,0,0,1-.94,0l-1.53-1.53v.92a.66.66,0,0,1-1,.6l-1-.52a12.38,12.38,0,0,1,2,3c1,2,8,10,11,12a23.49,23.49,0,0,1,6,7,11,11,0,0,1,1,2l-2.85-.3c-.09.19.76,1.11.85,1.3s0,1,0,1l.44.77s1.55.18,1.56.23-1.07,1.7-1,2c.32.17,1.66-.17,2,0s0,1,0,1Z"/><path class="cls-6" d="M155,258.14s-10.6-1-14.14-1c-1.84,0-5.49.67-7.32.8-2.1.16-4.63-.84-5.16-2.88-.76-2.92-.28-5.83-.84-11-.81-7.33-1.29-11.57-.14-13.93,1.44-2.94,8.13-3,10.23-3,0,0,11,1.18,14.67,1.32,2.11.09,7.35,2.13,7.39,5.79L158.93,250l-.19,4.24A3.84,3.84,0,0,1,155,258.14Z"/><path class="cls-6" d="M111,278.36s-10.75,3-14.18,4.46c-1.79.75-5.11,2.75-6.85,3.59-2,.95-4.85.94-6.14-.85-1.86-2.56-2.5-5.59-5-10.41-3.58-6.85-5.67-10.82-5.45-13.55.28-3.43,6.79-6.05,8.84-6.87,0,0,11.19-3.06,14.84-4.32,2.08-.72,8-.73,9.43,2.84l5.33,15.68,1.43,4.21A4,4,0,0,1,111,278.36Z"/><path class="cls-6" d="M132.74,287.39s-9.91-3.89-13.34-4.79c-1.78-.47-5.46-.86-7.26-1.23-2.06-.43-4.22-2.08-4.17-4.19.06-3,1.33-5.68,2.19-10.79,1.24-7.26,1.94-11.48,3.69-13.43,2.18-2.44,8.64-.67,10.67-.12,0,0,10.24,4.14,13.74,5.29,2,.66,6.49,4.06,5.52,7.59l-5,15-1.34,4A3.84,3.84,0,0,1,132.74,287.39Z"/><path class="cls-6" d="M92.85,252.18s-10-3.75-13.4-4.6c-1.79-.44-5.47-.78-7.28-1.12-2.07-.4-4.25-2-4.23-4.13,0-3,1.25-5.7,2-10.82C71.1,224.23,71.75,220,73.47,218c2.15-2.47,8.63-.8,10.66-.27,0,0,10.31,4,13.83,5.09,2,.62,6.54,4,5.62,7.51l-4.78,15-1.29,4A3.82,3.82,0,0,1,92.85,252.18Z"/><path class="cls-7" d="M167.47,164.51l-8.3,120.74a5.91,5.91,0,0,1-6.06,5.28H73.66a5.89,5.89,0,0,1-6-5.28L59.3,164.51"/><path class="cls-8" d="M167.47,155l-8.3,129.87a6.08,6.08,0,0,1-6.06,5.68H73.66a6.06,6.06,0,0,1-6-5.68L59.3,155"/></g></svg>
