<svg xmlns="http://www.w3.org/2000/svg" width="8cm" height="10.6cm" viewBox="0 0 226.77 300.53"><defs><style>.cls-1{fill:#f2f2f2;}.cls-2{fill:#ce9484;}.cls-3{fill:#a8553b;}.cls-4{fill:#f0f4d1;stroke:#bbd178;}.cls-4,.cls-8{stroke-miterlimit:10;stroke-width:3px;}.cls-5{fill:#d3e1a3;}.cls-6{fill:#fff;}.cls-7{opacity:0.44;}.cls-8{fill:none;stroke:#e6e6e6;stroke-linecap:round;}</style></defs><title>rom-darkandstormy</title><g id="drinks"><path class="cls-1" d="M167.16,164.51l-8.31,120.74a5.91,5.91,0,0,1-6.06,5.28H73.34a5.89,5.89,0,0,1-6-5.28L59,164.51"/><path class="cls-2" d="M164.16,191.51l-.31,24.65c-.06.53-6.65,3.13-19.23,3.35-3.91.07-10.53-2.11-15-2.07-4.86,0-8.91,6.06-14,6.07-6.06,0-13.18-6-19-6.07-5,0-9.77,2.15-14,2.07-3.38-.06-6.39-2.38-9.1-2.47-6.85-.22-11.19-.51-11.23-.88L62,191.51Z"/><path class="cls-3" d="M167.16,164.51l-3.31,33.18c0,.58-5.4-2.48-14.23-2.18-2.64.09-8.89,5.93-12,6-4.76.1-7.11-2.09-12.53-2-5.17,0-11.17,4.06-16.47,4-5.75,0-10.78-4.07-16.1-4.14-6.48-.09-12,1.32-16.9,1.14-7.83-.3-13.29-2.28-13.33-2.82L59,164.51Z"/><path class="cls-4" d="M136.33,193.6a39.25,39.25,0,0,1,61.41-48.73c.56.64,1.1,1.3,1.61,2"/><path class="cls-5" d="M168.63,166.76l-.3-.87c-.24-.71-5.83-17.43-4-26.32.74-3.55,3.78-5.06,9.07-4.53a10.21,10.21,0,0,1,6.86,3.26,5.59,5.59,0,0,1,1.2,4.31c-1.08,9-11.78,22.84-12.25,23.42Z"/><path class="cls-5" d="M196.84,148.71l-25,18.52c.81-1.61,8.41-16.49,15.71-21.32C190.49,144,193.61,144.93,196.84,148.71Z"/><path class="cls-5" d="M163.12,173.73l-24.3,18a9.56,9.56,0,0,1-2-6.37,5.62,5.62,0,0,1,2.19-3.91C145.2,176.64,159,174.32,163.12,173.73Z"/><path class="cls-5" d="M164.23,170.48l-.87.3c-.71.24-17.43,5.83-26.31,4a5.21,5.21,0,0,1-3.3-2q-1.73-2.33-1.24-7.07a10.22,10.22,0,0,1,3.26-6.85,5.65,5.65,0,0,1,4.31-1.21c9,1.08,22.84,11.78,23.42,12.25Z"/><path class="cls-5" d="M165.66,167.72l-.84-.41c-.64-.32-15.5-7.75-21-15.1l-.48-.67c-2-3-.91-6.26,3.21-9.62a10.13,10.13,0,0,1,7.14-2.53,5.56,5.56,0,0,1,3.91,2.19c5.58,7.12,7.81,24.47,7.9,25.22Z"/><path class="cls-6" d="M137,243.76s-10.75,3-14.18,4.47c-1.79.74-5.11,2.74-6.85,3.58-2,.95-4.85.94-6.14-.84-1.86-2.57-2.5-5.6-5-10.42-3.58-6.84-5.67-10.81-5.45-13.55.28-3.43,6.79-6.05,8.84-6.87,0,0,11.19-3,14.84-4.32,2.08-.72,8-.73,9.43,2.84l5.33,15.68,1.43,4.21A4,4,0,0,1,137,243.76Z"/><path class="cls-6" d="M149.74,208.79s-9.91-3.89-13.34-4.79c-1.78-.47-5.46-.86-7.26-1.23-2.06-.43-4.22-2.08-4.17-4.18.06-3,1.33-5.69,2.19-10.8,1.24-7.26,1.94-11.48,3.69-13.43,2.18-2.44,8.64-.67,10.67-.11,0,0,10.24,4.13,13.74,5.28,2,.66,6.49,4.06,5.52,7.59l-5,15-1.34,4A3.83,3.83,0,0,1,149.74,208.79Z"/><path class="cls-1" d="M91.85,197.59s-10-3.76-13.4-4.61c-1.79-.44-5.47-.78-7.28-1.12-2.07-.4-4.25-2-4.23-4.12,0-3,1.25-5.71,2-10.83,1.12-7.28,1.77-11.51,3.49-13.48,2.15-2.47,8.63-.8,10.66-.27,0,0,10.31,4,13.83,5.09,2,.63,6.54,4,5.62,7.51l-4.78,15-1.29,4A3.84,3.84,0,0,1,91.85,197.59Z"/><path class="cls-6" d="M125,212.54s-10.6-1-14.14-1c-1.84,0-5.49.67-7.32.8-2.1.16-4.63-.84-5.16-2.88-.76-2.92-.28-5.83-.84-11-.81-7.32-1.29-11.57-.14-13.93,1.44-2.94,8.13-3,10.23-3,0,0,11,1.18,14.67,1.32,2.11.09,7.35,2.13,7.39,5.8l-.71,15.76-.19,4.24A3.84,3.84,0,0,1,125,212.54Z"/><g class="cls-7"><path class="cls-1" d="M167.16,164.51l-8.31,120.74a5.91,5.91,0,0,1-6.06,5.28H73.34a5.89,5.89,0,0,1-6-5.28L59,164.51"/><path class="cls-2" d="M164.16,191.51l-.31,24.65c-.06.53-6.65,3.13-19.23,3.35-3.91.07-10.53-2.11-15-2.07-4.86,0-8.91,6.06-14,6.07-6.06,0-13.18-6-19-6.07-5,0-9.77,2.15-14,2.07-3.38-.06-6.39-2.38-9.1-2.47-6.85-.22-11.19-.51-11.23-.88L62,191.51Z"/><path class="cls-3" d="M167.16,164.51l-3.31,33.18c0,.58-5.4-2.48-14.23-2.18-2.64.09-8.89,5.93-12,6-4.76.1-7.11-2.09-12.53-2-5.17,0-11.17,4.06-16.47,4-5.75,0-10.78-4.07-16.1-4.14-6.48-.09-12,1.32-16.9,1.14-7.83-.3-13.29-2.28-13.33-2.82L59,164.51Z"/></g><path class="cls-8" d="M167.16,155l-8.31,129.87a6.08,6.08,0,0,1-6.06,5.68H73.34a6.06,6.06,0,0,1-6-5.68L59,155"/></g></svg>
