<svg xmlns="http://www.w3.org/2000/svg" width="8cm" height="10.6cm" viewBox="0 0 226.77 300.53"><defs><style>.cls-1,.cls-7{fill:#f2f2f2;}.cls-2{fill:#fff;}.cls-3{fill:#bbd178;}.cls-4{fill:#5e771c;}.cls-5{fill:#f0f4d1;stroke:#bbd178;}.cls-5,.cls-8{stroke-miterlimit:10;stroke-width:3px;}.cls-6{fill:#d3e1a3;}.cls-7{opacity:0.3;}.cls-8{fill:none;stroke:#e6e6e6;stroke-linecap:round;}</style></defs><title>rom-mojito</title><g id="drinks"><polygon class="cls-1" points="166.89 116.21 158.8 290.53 67.97 290.53 59.89 116.21 166.89 116.21"/><path class="cls-2" d="M152.22,187.56s-10.6-1-14.15-1c-1.84,0-5.48.67-7.32.8-2.09.16-4.63-.84-5.16-2.88-.76-2.92-.27-5.83-.84-11-.8-7.32-1.28-11.57-.13-13.93,1.44-2.94,8.13-3,10.23-3,0,0,11,1.18,14.67,1.33,2.1.08,7.35,2.12,7.39,5.79l-.72,15.76L156,183.7A3.83,3.83,0,0,1,152.22,187.56Z"/><path class="cls-2" d="M103.12,207.61s-10-3.76-13.41-4.61c-1.78-.44-5.47-.78-7.27-1.12-2.07-.39-4.25-2-4.24-4.12,0-3,1.25-5.71,2-10.83,1.12-7.28,1.76-11.51,3.48-13.48,2.15-2.47,8.63-.8,10.67-.27,0,0,10.31,4,13.82,5.09,2,.63,6.55,4,5.63,7.51l-4.78,15-1.29,4A3.84,3.84,0,0,1,103.12,207.61Z"/><path class="cls-3" d="M117.36,194.73c3.18,12.78-4.16,24.82-9.61,35.82s-11.83,21.82-17,33.11a112.34,112.34,0,0,0-7.15,20c-.47,1.87,2.43,2.67,2.89.8,3.06-12.46,8.86-23.89,14.87-35.14,3.05-5.72,6.09-11.43,9-17.23s5.91-11.25,8.09-17.22c2.43-6.66,3.56-13.94,1.82-20.91-.46-1.87-3.36-1.08-2.89.8Z"/><path class="cls-4" d="M86.12,274.12l-1.78-1.78a.72.72,0,0,1-.14-.84l.63-1.26a.73.73,0,0,0-.14-.84l-1.82-1.82H84L82.4,266a.74.74,0,0,1,.11-1.13l2.34-1.56a.7.7,0,0,0,.29-.37l1-3.06,1.09,1.1v-4.21a.73.73,0,0,1,.08-.33l.79-1.57a.73.73,0,0,0-.14-.84l-1.31-1.31a.74.74,0,0,1,0-1l1-1.05a.73.73,0,0,0-.11-1.12l-2-1.34a.73.73,0,0,1-.25-.93l.57-1.15a.73.73,0,0,0-.13-.84l-2.21-2.2a.73.73,0,0,1,.19-1.17l.17-.08a.73.73,0,0,0,.08-1.26l-2.25-1.5.58-.58a.72.72,0,0,0,0-1l-1.16-1.16a.75.75,0,0,1,0-1l.07-.06a.74.74,0,0,0,0-1l-2.78-2.78h1.1l-2.19-3.29h1.09l-1.09-3.29h1.09v-1.18a.73.73,0,0,1,1-.69l1.37.46a.73.73,0,0,0,1-.69v-1.19l2.78,2.78a.74.74,0,0,0,1,0l.58-.58.93,2.79a.73.73,0,0,0,.69.5h.94a.73.73,0,0,1,.73.73v1.38a.73.73,0,0,0,1,.65l.29-.14a.73.73,0,0,1,1,.51l.79,4a.73.73,0,0,0,.72.58h.51a.73.73,0,0,1,.68,1L93,239.54a.73.73,0,0,0,.35.93l.94.47a.73.73,0,0,1,.32,1l-.6,1.21a.68.68,0,0,0,0,.65l.8,1.6a.77.77,0,0,1,0,.56l-.69,2a.74.74,0,0,0,.7,1h0A.73.73,0,0,1,95.5,250l-1.14,2.28a.73.73,0,0,0,.65,1h1l-2.78,2.78a.74.74,0,0,0,0,1l.33.33a.71.71,0,0,1,.21.6l-.41,3.46a.59.59,0,0,1,0,.19L88,274.42a.74.74,0,0,1-1.11.3l-.71-.53Z"/><path class="cls-4" d="M98.77,240.71l-1.1-5.48h1.1l-2.19-3.29h1.09l-2.19-2.19h2.19l-3.29-3.29h2.2l-2.34-2.34a.56.56,0,0,1,.4-1h.58a.56.56,0,0,0,.4-1l-2.33-2.33h1.09l-1.09-1.1h1.09l-1.09-2.19h1.09l-2.19-3.29h1.1l-1.1-2.19h1.1l-1.1-2.2h1.1l-4.35-4.34-.07-.09-2.16-3.24H87.8l-3.29-2.19h1.1l-3.29-2.2h1.1l-2.2-2.19h1.1l-2.19-1.1h1.09l-1.09-1.09h1.09l-1.09-1.1h1.09v-1.1l1.1,1.1v-1.1l2.19,1.1v-1.1l2.2,1.1v-1.1l1.09,2.2v-1.1l1.1,2.19,1.1-1.09,1.09,2.19v-1.1l1.1,2.2v-1.1l1.1,2.19,1.09-1.09v3.29l1.1-1.1v2.19l1.1-1.09,1.09,3.29,1.1-1.1,1.1,3.29,1.09-1.1v3.29l1.1-1.1v3.29l1.09-1.09v3.29l1.1-1.1v3.29l1.1-1.1v3.29l1.09-1.09-1.09,4.38h1.09V221h1.1l-1.1,2.19h1.1v2.19h1.1v3.29l-5.48,10.95s0,0,0,0l-2.58,4.3a.56.56,0,0,1-1-.15Z"/><path class="cls-4" d="M101.05,250.38l2.49.29a.73.73,0,0,0,.74-.42l.61-1.25a.73.73,0,0,1,.74-.42l2.54.29-.66-.85,2.18.25a.74.74,0,0,0,.82-.78l-.2-2.77a.73.73,0,0,1,.13-.46l1.78-2.67-1.53-.18,3.32-2.59a.75.75,0,0,0,.21-.26L115,237a.74.74,0,0,1,.75-.41l1.82.21a.74.74,0,0,0,.81-.64l.19-1.46a.73.73,0,0,1,1-.6l2.28.73a.73.73,0,0,0,.88-.38l.56-1.16a.73.73,0,0,1,.74-.41l3.08.35a.73.73,0,0,0,.8-.87l0-.17a.73.73,0,0,1,.94-.84l2.54.82.1-.81a.75.75,0,0,1,.82-.64l1.62.19a.74.74,0,0,0,.81-.64v-.09a.74.74,0,0,1,.81-.63l3.87.44-.66-.85,3.92-.33-.67-.85,3.26-1.18-.67-.85.93-.72a.73.73,0,0,0,0-1.18l-1.19-.78a.72.72,0,0,1,0-1.17l.93-.73-3.87-.44a.71.71,0,0,1-.63-.8l.11-.81-2.77,1a.7.7,0,0,1-.81-.23l-.57-.72a.72.72,0,0,0-1-.12l-1.08.85a.72.72,0,0,1-1.16-.42l-.06-.3a.72.72,0,0,0-1-.5l-3.6,1.83a.72.72,0,0,1-.9-.19l-.31-.4a.72.72,0,0,0-1.2.09l-2.1,3.57a.73.73,0,0,1-.94.3l-.94-.44a.74.74,0,0,0-1,.35l-.59,1.22a.74.74,0,0,1-.51.4l-1.75.37a.77.77,0,0,0-.46.31L116.76,228a.73.73,0,0,1-1.18.05h0a.73.73,0,0,0-1.23.15l-1.1,2.28a.73.73,0,0,1-1.23.14l-.61-.78-.5,3.86a.74.74,0,0,1-.81.64l-.46-.06a.77.77,0,0,0-.6.21L106.56,237a1,1,0,0,0-.12.16l-6.78,12a.72.72,0,0,0,.44,1l.85.22Z"/><path class="cls-4" d="M117.83,211.34l-1.43,6L113,223.17a40.72,40.72,0,0,1-6.58-9.87c-3.29-6.58-8.77-14.25-11-15.35s0-4.39,0-4.39l2.19,1.1v-1.1l2.2,2.2,1.09-1.1,3.29,3.29v-2.19l2.19,3.29,1.1-2.2,2.19,4.39,1.1-2.19v3.29l1.1-1.1,1.09,3.29h1.1v2.19h1.1V210l1.09-1.1v2.2l1.1-1.1Z"/><path class="cls-4" d="M106.77,113.46l-2.45,5.68-.75,6.74a41,41,0,0,0,11.36-3.77c6.68-3.19,15.82-5.89,18.28-5.4s2.65-3.5,2.65-3.5l-2.46-.49.66-.87-3.12.38-.24-1.56-4.69.57,1.33-1.74-3.79,1.25.42-2.43-4.45,2.13L120,108l-2,2.62-.24-1.55L114.83,111l-.9-.68-1.32,1.75-.9-.68-2,2.62-.24-1.56-1.32,1.75-.24-1.56Z"/><path class="cls-4" d="M98.66,134a.41.41,0,0,1-.11.07l-1.77.83v-2.19L95.65,136l-1.13-2.2-.86,2.5a.76.76,0,0,1-1,.42l-.7-.35a.76.76,0,0,0-1,.42l-.86,2.5-.46-.89a.76.76,0,0,0-1.34,0l-.46.89-.6-.58a.75.75,0,0,0-1.06,0l-1,1a.77.77,0,0,1-1.21-.19l-.32-.64a.76.76,0,0,0-1-.32l-1.59.77.8-2.33a.73.73,0,0,0-.71-1H79.83l1.4-2a.71.71,0,0,0-.38-1c-.25-.11-.33-.47.11-1.32a5.25,5.25,0,0,1,2.16-1.93.73.73,0,0,0-.38-1.36H73.05c-4.25,0-8.5-2.91-9-3.26L64,125l-1.08-1.06,2.26-1.09H64l3.38-1.1-1.12-1.1,2.39.78a.74.74,0,0,0,1-.69v-.17a.75.75,0,0,1,1-.69l2.4.77-1.13-2.19,4.52,1.1-1.13-2.19,4.52,1.09-1.13-1.09,4.52,1.09-1.13-1.09,4.52,1.09v-1.09L90,119.55v-1.18a.74.74,0,0,1,1-.69l.45.14a.74.74,0,0,0,.9-1,27.37,27.37,0,0,1-2.34-4.9c-1.13-3.29-2.26-8.77-3.39-11A14.78,14.78,0,0,1,86,99.54a.74.74,0,0,1,1.11-.87l1.77,1.14v-1.1l2.26,2.2v-2.2l1.13,1.1V96.52l1.13,1.1,1.13-3.29.75.72a.76.76,0,0,0,.86.14l1.11-.54a.75.75,0,0,1,1,.33l.8,1.54v-1.1l2.26,3.29V97.62l1.13,3.29h1.13L103,102a.73.73,0,0,0,.67,1.06.74.74,0,0,1,.72,1l-.8,2.33h1.13l-1,2a.62.62,0,0,0-.08.33v3.11l2.26-5.48,1.13,2.19,1.13-4.38,1.13,1.09,1.13-3.29,1.13,1.1,1.54-2.24a.75.75,0,0,1,1.29.08l.56,1.06L116,98.71l.45.89a.77.77,0,0,0,1.35,0l.45-.89v1.1L120,98.13a.79.79,0,0,1,1.07,0l.06.07a.79.79,0,0,0,1.07,0l1.72-1.68v1a.75.75,0,0,0,1.09.66l1.17-.57a13.4,13.4,0,0,0-2.26,3.29c-1.13,2.19-9,11-12.42,13.16a25.86,25.86,0,0,0-6.78,7.67,12.34,12.34,0,0,0-1.13,2.19l3.22-.32c.1.2-.86,1.22-1,1.42,0,0,0,1.06,0,1.1s-.5.83-.5.85-1.75.2-1.76.24c-.06.21,1.21,1.87,1.13,2.2-.36.18-1.87-.18-2.26,0-.55.25,0,1.06,0,1.09Z"/><path class="cls-3" d="M121.12,127.82l-.1-.06-1.31-1,2-.85-3.38.46,1.68-1.67-2.56.35a.57.57,0,0,1-.71-.6l.1-.65c.06-.37-.27-.65-.71-.59l-2.55.34.67-.67a.55.55,0,0,0-.41-1l-1,0,.35-.66a.52.52,0,0,0-.33-.77l-1.19-.35a.53.53,0,0,1-.19-.94l.48-.49a.54.54,0,0,0,0-.86l-1.2-.85,2.39-.32c.49-.07.83-.52.67-.89l-.37-.88,2.29.22a.79.79,0,0,0,.84-.68c0-.23.33-.42,1.25-.43a4.59,4.59,0,0,1,2.44.81c.55.34,1.37-.25,1.14-.8l-3-7c-1.3-3.08.08-7.3.25-7.78a.42.42,0,0,1,0-.1l.64-1.2,1.7,1.21-.35-.81,2,2,.66-1.25,0,2c0,.42.48.64.94.45l.16-.07c.46-.19.94,0,.94.45l0,2,1.67-1.67.37,3.7,1.68-1.67.37,3.7.67-1.24.37,3.7.66-1.24.37,3.7,1-.43-1,3.31,1.09-.46c.46-.19.94,0,.94.45v.39c0,.55.81.71,1.24.24a32.87,32.87,0,0,1,3.8-3.6c2.69-2.1,7.39-5,9.07-6.72.39-.4.75-.72,1.07-1,.53-.45,1.32-.13,1.14.47l-.51,1.73,1-.43-1.33,2.49,2-.85-.66,1.24,3-1.27-.67,1.24,3.38-.46-.44.82a.52.52,0,0,0,.14.69l.83.59a.54.54,0,0,1,0,.85l-1.18,1.18,1-.43L154.43,116l1-.43-2.68,2.1.34.82-1.22,0c-.53,0-.94.49-.77.89s-.18.83-.67.89l-2.39.33.35.82-2.2,0a1,1,0,0,0-.33.07L143,122.76l5.74-.49-1.67,1.67,4.38-.89-.66,1.25,3.38-.46-.67,1.24,2.54.25a.54.54,0,0,1,.32,1l-.81.81,3.37-.46-.67.68a.55.55,0,0,0,.41,1l1,0-1,.43,2.07.6a.51.51,0,0,1,.32.77l0,.07a.52.52,0,0,0,.33.77l2.07.6-.93.4c-.5.21-.64.77-.27,1l.88.63a13.57,13.57,0,0,0-3.72-.36c-2.36,0-12.86-2.29-15.92-3.89-2.62-1.38-7.89-2-9.15-1.93a13.2,13.2,0,0,0-2.36,0l1.28,2.21c-.15.16-1.38-.15-1.6-.14,0,0-1,.41-1,.42s-.92,0-.94,0-.72-1.19-.76-1.18c-.21,0-1.35,1.61-1.68,1.67-.28-.18-.41-1.42-.69-1.64s-1,.45-1,.43Z"/><path class="cls-4" d="M122.16,208l.11.07,1.72.83v-2.19l1.1,3.29,1.09-2.19.83,2.49a.73.73,0,0,0,1,.42l.69-.34a.73.73,0,0,1,1,.42l.83,2.49.44-.89a.74.74,0,0,1,1.31,0l.44.89.58-.58a.74.74,0,0,1,1,0l1,1a.72.72,0,0,0,1.16-.19l.32-.63a.73.73,0,0,1,1-.33l1.54.77-.78-2.33a.74.74,0,0,1,.7-1h1.18l-1.36-2a.71.71,0,0,1,.37-1c.25-.12.32-.47-.11-1.33a5.17,5.17,0,0,0-2.09-1.93.73.73,0,0,1,.37-1.35H147c4.12,0,8.25-2.92,8.72-3.26a.71.71,0,0,0,.09-.07l1.06-1.06-2.2-1.1h1.1l-3.29-1.09,1.1-1.1-2.33.78a.73.73,0,0,1-1-.7v-.16a.74.74,0,0,0-1-.7l-2.33.78,1.09-2.19-4.38,1.09,1.09-2.19-4.38,1.1,1.09-1.1-4.38,1.1,1.09-1.1-4.38,1.1v-1.1l-3.29,2.19v-1.18a.73.73,0,0,0-1-.69l-.44.15a.73.73,0,0,1-.87-1.05,29.31,29.31,0,0,0,2.27-4.9c1.1-3.29,2.19-8.78,3.29-11a13.11,13.11,0,0,0,.6-1.37.73.73,0,0,0-1.08-.87l-1.71,1.14v-1.09l-2.2,2.19v-2.19l-1.09,1.09v-3.28l-1.1,1.09-1.1-3.29-.72.73a.73.73,0,0,1-.84.13l-1.07-.53a.73.73,0,0,0-1,.32l-.77,1.55v-1.1l-2.2,3.29v-1.1l-1.09,3.29h-1.1l.57,1.14a.73.73,0,0,1-.65,1.05.74.74,0,0,0-.7,1l.78,2.33h-1.1l1,2a.76.76,0,0,1,.08.33v3.12l-2.19-5.49-1.1,2.2-1.1-4.39-1.09,1.1-1.1-3.29-1.1,1.09-1.49-2.24A.73.73,0,0,0,107,175l-.54,1.07-1.09-3.29-.45.89a.73.73,0,0,1-1.3,0l-.45-.89v1.09l-1.67-1.67a.72.72,0,0,0-1,0l-.07.06a.72.72,0,0,1-1,0l-1.68-1.67v1a.73.73,0,0,1-1,.65l-1.14-.57a13.49,13.49,0,0,1,2.19,3.29c1.1,2.19,8.77,11,12.06,13.16a25.81,25.81,0,0,1,6.58,7.68,11.82,11.82,0,0,1,1.1,2.19l-3.13-.33c-.1.21.83,1.22.94,1.43,0,0,0,1,0,1.09s.48.83.48.85,1.7.2,1.71.25-1.18,1.86-1.1,2.19c.35.19,1.82-.18,2.2,0s-.05,1.06,0,1.1Z"/><path class="cls-3" d="M130.07,278.63l.14,0,1.9,0-.93-2,2.39,2.51.06-2.45,1.81,1.9a.73.73,0,0,0,1.1-.06l.48-.6a.72.72,0,0,1,1.1-.05l1.81,1.89,0-1a.73.73,0,0,1,1.18-.56l.78.62.27-.77a.75.75,0,0,1,.94-.45l1.28.46a.72.72,0,0,0,1-.67l0-.71a.73.73,0,0,1,.75-.71l1.72,0-1.7-1.78a.73.73,0,0,1,.22-1.16l1.07-.5-2.1-1.26a.7.7,0,0,1-.1-1.09c.17-.21.08-.56-.67-1.15a5.13,5.13,0,0,0-2.71-.86.72.72,0,0,1-.25-1.38l8.5-4c3.73-1.76,6.22-6.16,6.5-6.67l.05-.11.5-1.4-2.45-.06,1-.47-3.44.42.52-1.46L151,254.83a.73.73,0,0,1-1.17-.21l-.07-.15a.73.73,0,0,0-1.16-.22l-1.78,1.7.06-2.46-3.5,2.87.05-2.45L140,256.77l.52-1.46-3.5,2.86.53-1.45-3.5,2.86-.47-1-2,3.38-.5-1.06a.74.74,0,0,0-1.17-.22l-.33.32a.73.73,0,0,1-1.24-.58,28,28,0,0,0,0-5.4c-.41-3.44-1.76-8.87-1.7-11.32,0-.57,0-1.07,0-1.49a.73.73,0,0,0-1.35-.33l-1.06,1.77-.47-1-1,2.91-.93-2-.53,1.46-1.4-3-.53,1.46L116.78,241l-.35,1a.73.73,0,0,1-.7.49l-1.2,0a.73.73,0,0,0-.74.71l0,1.72-.47-1-.58,3.91-.47-1,.41,3.45-1,.46,1,.79a.73.73,0,0,1-.14,1.23.73.73,0,0,0-.21,1.17l1.69,1.77-1,.47,1.79,1.41a.75.75,0,0,1,.21.26l1.33,2.82-4.32-4-.06,2.45-2.86-3.5-.52,1.46-2.4-2.51-.52,1.46-2.31-1.39a.73.73,0,0,0-1.11.61l0,1.2-2.39-2.51,0,1a.73.73,0,0,1-1.18.56l-.78-.62.46,1-2.23-.8a.72.72,0,0,0-.93.44l0,.08a.73.73,0,0,1-.94.44l-2.23-.8.43.92a.73.73,0,0,1-.67,1l-1.27,0a13.31,13.31,0,0,1,3.38,2c1.93,1.51,12.62,6.17,16.53,6.75a26,26,0,0,1,9.22,4.13c.17.14,1.94,1.3,1.93,1.52l-3,1c0,.23,1.27.74,1.45.89s.44,1,.46,1,.8.54.81.56,1.62-.54,1.65-.51-.27,2.19-.06,2.45c.4,0,1.57-.93,2-.93.59,0,.41,1,.47,1Z"/><path class="cls-4" d="M164.08,118.7l-1.43,6-3.38,5.82a40.72,40.72,0,0,1-6.58-9.87c-3.29-6.58-8.77-14.26-11-15.35s0-4.39,0-4.39l2.19,1.1v-1.1l2.19,2.19,1.1-1.09,3.29,3.29v-2.2l2.19,3.29,1.1-2.19L156,108.6l1.1-2.2v3.29l1.1-1.09,1.09,3.29h1.1v2.19h1.1v3.29l1.09-1.1v2.19l1.1-1.09Z"/><path class="cls-2" d="M139,282.81s-9.91-3.89-13.33-4.79c-1.79-.47-5.46-.86-7.27-1.23-2.06-.42-4.22-2.08-4.17-4.18.07-3,1.33-5.69,2.2-10.8,1.23-7.26,1.93-11.48,3.68-13.43,2.19-2.44,8.64-.67,10.67-.11,0,0,10.25,4.13,13.75,5.28,2,.66,6.49,4.06,5.52,7.6l-5,15-1.35,4A3.82,3.82,0,0,1,139,282.81Z"/><path class="cls-2" d="M112.63,256s-12.18,3.44-16.07,5.06c-2,.84-5.79,3.11-7.76,4.06-2.26,1.08-5.49,1.07-7-1-2.11-2.91-2.83-6.34-5.69-11.8C72.09,244.64,69.72,240.15,70,237c.32-3.88,7.7-6.85,10-7.78,0,0,12.68-3.46,16.82-4.89,2.36-.82,9.06-.83,10.68,3.21l6,17.77,1.62,4.78A4.56,4.56,0,0,1,112.63,256Z"/><path class="cls-5" d="M125,150.67A39.24,39.24,0,0,1,77.66,88.21c.66-.55,1.33-1.08,2-1.57"/><path class="cls-6" d="M98.9,117.79l-.88.28c-.71.23-17.55,5.44-26.4,3.43-3.53-.81-5-3.89-4.33-9.16a10.27,10.27,0,0,1,3.41-6.78A5.6,5.6,0,0,1,75,104.45c9,1.28,22.57,12.28,23.14,12.76Z"/><path class="cls-6" d="M81.48,89.19l18,25.37c-1.6-.84-16.3-8.77-21-16.17C76.62,95.43,77.63,92.34,81.48,89.19Z"/><path class="cls-6" d="M105.75,123.46l17.48,24.68a9.6,9.6,0,0,1-6.42,1.83,5.54,5.54,0,0,1-3.85-2.28C108.26,141.43,106.25,127.58,105.75,123.46Z"/><path class="cls-6" d="M102.53,122.27l.28.88c.22.71,5.44,17.56,3.42,26.4a5.24,5.24,0,0,1-2.06,3.25q-2.36,1.66-7.1,1.08a10.22,10.22,0,0,1-6.78-3.41,5.64,5.64,0,0,1-1.11-4.34c1.29-9,12.29-22.57,12.77-23.14Z"/><path class="cls-6" d="M99.79,120.78l-.43.83c-.33.64-8.08,15.33-15.55,20.62-.23.16-.46.32-.69.46-3.06,1.93-6.27.78-9.54-3.41a10.18,10.18,0,0,1-2.38-7.2,5.63,5.63,0,0,1,2.28-3.86c7.24-5.42,24.65-7.27,25.39-7.34Z"/><polygon class="cls-7" points="166.89 116.21 158.8 290.53 67.97 290.53 59.89 116.21 166.89 116.21"/><polyline class="cls-8" points="167.89 92.21 158.8 290.53 67.97 290.53 58.89 92.21"/></g></svg>
