<svg xmlns="http://www.w3.org/2000/svg" width="8cm" height="10.6cm" viewBox="0 0 226.77 300.53"><defs><style>.cls-1{fill:#f4504d;}.cls-2{fill:#f0f4d1;stroke:#bbd178;}.cls-2,.cls-3,.cls-6,.cls-7{stroke-miterlimit:10;}.cls-2,.cls-7{stroke-width:3px;}.cls-3{fill:#d3e1a3;stroke:#d3e1a3;}.cls-4{fill:#f2f2f2;}.cls-5{opacity:0.3;}.cls-6{fill:#e6e6e6;stroke-width:2px;}.cls-6,.cls-7{stroke:#e6e6e6;}.cls-7{fill:none;stroke-linecap:round;}</style></defs><title>rom-strawberrydaquiri</title><g id="drinks"><path class="cls-1" d="M118,180.22c-.31,13.68-1.49,85.32,2.06,93.31,2.62,5.9,19.62,9.93,30,13,5.46,1.61,8,4,8,4H68.72s2.54-2.39,8-4c10.38-3.07,27.38-7.1,30-13,3.55-8,2.37-79.63,2.06-93.31a8.24,8.24,0,0,0-1.69-4.82s-16.55-9.87-21.55-15.87c-6.93-8.32-6.26-21.7-9.93-26-4.19-4.87-12.8-6.09-21.06-14.69-8-8.34-8.83-22.34-8.83-22.34H181.06s-.82,14-8.83,22.34c-8.25,8.6-16.87,9.82-21,14.69-3.67,4.27-3,17.65-9.94,26-5,6-21.55,15.87-21.55,15.87A8.24,8.24,0,0,0,118,180.22Z"/><circle class="cls-2" cx="43.37" cy="87.78" r="39.25"/><path class="cls-3" d="M39.88,84S36.53,66.33,30.52,59.6c-2.8-3.15-7.29-1.71-10.29,1.07s-5,5.92-2.53,9.12C23.14,77,39.88,84,39.88,84Z"/><path class="cls-3" d="M43.56,82.66S53.7,67.77,54.22,58.77c.23-4.21-4-6.37-8-6.52s-7.69.68-8.25,4.66C36.68,65.86,43.56,82.66,43.56,82.66Z"/><path class="cls-3" d="M47.12,84.29s17.7-3.35,24.43-9.36c3.15-2.81,1.71-7.29-1.07-10.29s-5.92-5-9.12-2.54C54.14,67.55,47.12,84.29,47.12,84.29Z"/><path class="cls-3" d="M48.49,88S63.38,98.11,72.38,98.62c4.21.24,6.36-4,6.52-8s-.68-7.69-4.66-8.25C65.29,81.09,48.49,88,48.49,88Z"/><path class="cls-3" d="M46.86,91.53s3.35,17.7,9.36,24.43c2.8,3.15,7.29,1.71,10.29-1.07S71.46,109,69,105.76C63.6,98.55,46.86,91.53,46.86,91.53Z"/><path class="cls-3" d="M43.18,92.9S33,107.78,32.53,116.79c-.24,4.21,3.95,6.36,8,6.52s7.69-.69,8.25-4.66C50.06,109.7,43.18,92.9,43.18,92.9Z"/><path class="cls-3" d="M39.62,91.26s-17.7,3.36-24.43,9.36c-3.15,2.81-1.71,7.3,1.07,10.3s5.92,5,9.13,2.53C32.6,108,39.62,91.26,39.62,91.26Z"/><path class="cls-3" d="M38.25,87.59S23.37,77.44,14.36,76.93c-4.21-.24-6.36,3.95-6.52,8-.15,3.94.68,7.69,4.66,8.25C21.45,94.46,38.25,87.59,38.25,87.59Z"/><path class="cls-4" d="M179.23,105.87c2.39-6.34,1.83-10.34,1.83-10.34s-9.81-1-13.08-1c-4.19,0-12.57,1-16.75,1s-12.72-2-16.95-2-12.26,2-16.35,2c-3.58,0-8.74-2-12.33-2-2.74,0-10.23,2-13,2-3.21,0-9.64-1-12.85-1-3.89,0-11.66,1-15.54,1-2.06,0-6.17-1-8.23-1-2.57,0-10.28,1-10.28,1s-.1,3,1.83,10.34Z"/><g class="cls-5"><path class="cls-1" d="M118,180.22c-.31,13.68-1.49,85.32,2.06,93.31,2.62,5.9,19.62,9.93,30,13,5.46,1.61,8,4,8,4H68.72s2.54-2.39,8-4c10.38-3.07,27.38-7.1,30-13,3.55-8,2.37-79.63,2.06-93.31a8.24,8.24,0,0,0-1.69-4.82s-16.55-9.87-21.55-15.87c-6.93-8.32-6.26-21.7-9.93-26-4.19-4.87-12.8-6.09-21.06-14.69-8-8.34-8.83-22.34-8.83-22.34H181.06s-.82,14-8.83,22.34c-8.25,8.6-16.87,9.82-21,14.69-3.67,4.27-3,17.65-9.94,26-5,6-21.55,15.87-21.55,15.87A8.24,8.24,0,0,0,118,180.22Z"/><path class="cls-4" d="M179.23,105.87c2.39-6.34,1.83-10.34,1.83-10.34s-9.81-1-13.08-1c-4.19,0-12.57,1-16.75,1s-12.72-2-16.95-2-12.26,2-16.35,2c-3.58,0-8.74-2-12.33-2-2.74,0-10.23,2-13,2-3.21,0-9.64-1-12.85-1-3.89,0-11.66,1-15.54,1-2.06,0-6.17-1-8.23-1-2.57,0-10.28,1-10.28,1s-.1,3,1.83,10.34Z"/></g><path class="cls-6" d="M131.77,166.93c-1.52.69-14.58,9.93-14.61,11.61-.3,13.09-1.43,87.07,2,94.72,2.5,5.65,18.77,9.5,28.71,12.44a20.09,20.09,0,0,1,7.65,3.83H71.28a20.09,20.09,0,0,1,7.66-3.83c9.93-2.94,26.2-6.79,28.7-12.44,3.4-7.65,2.27-81.63,2-94.72,0-1.68-13.11-10.89-14.62-11.61,0,0,13.62,7,18.39,7C118.62,173.93,131.77,166.93,131.77,166.93Z"/><path class="cls-7" d="M182.06,92.53s-1.82,18-9.83,26.34c-8.25,8.6-16.87,9.82-21,14.69-3.67,4.27-3,17.65-9.94,26-5,6-21.55,15.87-21.55,15.87a8.24,8.24,0,0,0-1.69,4.82c-.31,13.68-1.49,85.32,2.06,93.31,2.62,5.9,19.62,9.93,30,13,5.46,1.61,8,4,8,4H68.72s2.54-2.39,8-4c10.38-3.07,27.38-7.1,30-13,3.55-8,2.37-79.63,2.06-93.31a8.24,8.24,0,0,0-1.69-4.82s-16.55-9.87-21.55-15.87c-6.93-8.32-6.26-21.7-9.93-26-4.19-4.87-12.8-6.09-21.06-14.69-8-8.34-9.83-26.34-9.83-26.34"/></g></svg>
