<svg xmlns="http://www.w3.org/2000/svg" width="8cm" height="10.6cm" viewBox="0 0 226.77 300.53"><defs><style>.cls-1,.cls-7{fill:#f8b54a;}.cls-2,.cls-8{fill:#f4504d;}.cls-3{fill:#fff;}.cls-4{fill:#ffeab3;stroke:#f38749;}.cls-4,.cls-9{stroke-miterlimit:10;stroke-width:3px;}.cls-5{fill:#6d4838;}.cls-6{fill:#e13c30;isolation:isolate;}.cls-7{opacity:0.54;}.cls-8{opacity:0.66;}.cls-9{fill:none;stroke:#e6e6e6;stroke-linecap:round;}</style></defs><title>tequila-sunrise</title><g id="drinks"><path class="cls-1" d="M157.83,98.4c1.48,29.44,7.14,157.79-1.27,171-6.91,10.86-14.45,15.81-19.53,19.25a10.92,10.92,0,0,1-6.14,1.88H96.46a10.92,10.92,0,0,1-6.14-1.88c-5.08-3.44-12.62-8.39-19.53-19.25-8.41-13.21-2.75-141.56-1.27-171"/><path class="cls-2" d="M159.83,181.4c1.48,29.44,5.14,74.79-3.27,88-6.91,10.86-14.45,15.81-19.53,19.25a10.92,10.92,0,0,1-6.14,1.88H96.46a10.92,10.92,0,0,1-6.14-1.88c-5.08-3.44-12.62-8.39-19.53-19.25-8.41-13.21-4.75-58.56-3.27-88,0,0,10.54,2.13,14.1,2.13s10.53-2.9,14-2.13c4.17.94,10.76,8.06,15,8.13,4.53.07,11.78-7.1,16.19-8.13,4.61-1.07,14.08,2.21,18.81,2.13C149.21,183.46,159.83,181.4,159.83,181.4Z"/><path class="cls-3" d="M151.05,222.71s-13.06,1.88-17.3,3c-2.2.59-6.4,2.42-8.57,3.12-2.47.81-5.81.35-7.05-1.94-1.78-3.29-2-6.94-4.25-13-3.13-8.57-5-13.54-4.27-16.71.86-4,8.89-6,11.42-6.66,0,0,13.56-1.83,18-2.73,2.56-.52,9.47.39,10.59,4.79l3.79,19.17,1,5.16A4.75,4.75,0,0,1,151.05,222.71Z"/><path class="cls-3" d="M125,262.66s-13.77-.76-18.35-.48c-2.38.15-7.07,1.16-9.43,1.44-2.71.32-6-.84-6.84-3.45-1.14-3.74-.67-7.53-1.68-14.17-1.43-9.43-2.28-14.9-.93-18,1.7-3.89,10.36-4.34,13.08-4.48,0,0,14.29.93,19.06.92,2.72,0,9.62,2.36,9.87,7.1L129.72,252l0,5.5A5,5,0,0,1,125,262.66Z"/><path class="cls-3" d="M111.06,203.59s-13.15-5.11-17.69-6.28c-2.37-.61-7.24-1.11-9.63-1.59-2.73-.55-5.6-2.73-5.55-5.52.07-4,1.73-7.54,2.85-14.31,1.59-9.63,2.5-15.22,4.8-17.81,2.89-3.24,11.45-.94,14.14-.21,0,0,13.6,5.42,18.24,6.93,2.65.85,8.61,5.33,7.35,10L119,194.68,117.27,200A5.08,5.08,0,0,1,111.06,203.59Z"/><path class="cls-3" d="M136.76,146s-14.09,4-18.58,5.92c-2.34,1-6.68,3.64-9,4.75-2.6,1.26-6.35,1.24-8.07-1.12-2.47-3.4-3.34-7.41-6.7-13.79-4.78-9.06-7.57-14.31-7.31-17.94.33-4.54,8.85-8,11.53-9.1,0,0,14.67-4,19.45-5.72,2.73-1,10.49-1,12.41,3.76l7.17,20.75,1.93,5.58A5.31,5.31,0,0,1,136.76,146Z"/><path class="cls-4" d="M43.38,129.51a39.25,39.25,0,0,1,52-58.65c.67.53,1.31,1.09,1.93,1.66"/><path class="cls-1" d="M70.53,97.47l-.45-.81c-.36-.65-8.76-16.15-8.53-25.22.11-3.62,2.85-5.64,8.15-6a10.16,10.16,0,0,1,7.31,2,5.58,5.58,0,0,1,1.94,4c.5,9.05-7.64,24.54-8,25.19Z"/><path class="cls-1" d="M95.17,74.79,73.8,97.37c.52-1.72,5.42-17.7,11.77-23.72C88.1,71.24,91.33,71.63,95.17,74.79Z"/><path class="cls-1" d="M66.31,105.29l-20.8,22a9.64,9.64,0,0,1-3-5.94A5.57,5.57,0,0,1,44,117.1C49.17,111.27,62.37,106.59,66.31,105.29Z"/><path class="cls-1" d="M66.84,101.9l-.81.45c-.65.35-16.15,8.76-25.21,8.52a5.26,5.26,0,0,1-3.59-1.39c-1.4-1.33-2.21-3.58-2.45-6.75a10.17,10.17,0,0,1,2-7.32,5.62,5.62,0,0,1,4-1.93c9.05-.5,24.54,7.63,25.19,8Z"/><path class="cls-1" d="M67.77,98.93l-.9-.26c-.69-.2-16.61-4.94-23.26-11.22L43,86.86c-2.48-2.63-2-6,1.49-10A10.11,10.11,0,0,1,51.1,73.1a5.58,5.58,0,0,1,4.23,1.48c6.73,6,12,22.75,12.16,23.46Z"/><path class="cls-5" d="M91.61,89.64c1.34-4.76,2.6-9.54,4-14.27a31.64,31.64,0,0,1,2.85-6.73c1.19-2,2.57-3.92,3.88-5.86a89.07,89.07,0,0,0,7.27-12.26c1.9-4.07,3.09-8.51,1.93-13a1.14,1.14,0,0,0-2.06-.27l-1.94,3.49c-.6,1.07.92,2.38,1.77,1.36.06-.08.22-.15.22,0L110.69,41h-1.47a1.13,1.13,0,0,0-1.08,1.43,12,12,0,0,1,.34,5.12c-.22,1.42,2,2,2.17.6a14.5,14.5,0,0,0-.34-6.32l-1.09,1.42h1.47a1.15,1.15,0,0,0,1.13-1.13,2.36,2.36,0,0,0-4.06-1.6l1.76,1.37,2-3.5-2.06-.26c1.18,4.53-.51,9.06-2.6,13.05a117.26,117.26,0,0,1-7.4,11.93,41.85,41.85,0,0,0-6,11.85c-1.4,4.66-2.66,9.36-4,14.05a1.13,1.13,0,0,0,2.17.6Z"/><path class="cls-6" d="M90,113.16C79,115.81,74.42,102,74,100.24c-2.34-9.75,8-14.82,10.48-15.41,2-.49,4.58,1.86,7,2.2s4.58-1.35,6.49.1A11,11,0,0,1,102,93.52C104.66,104.49,98.52,111.12,90,113.16Z"/><path class="cls-7" d="M157.83,98.4c1.48,29.44,7.14,157.79-1.27,171-6.91,10.86-14.45,15.81-19.53,19.25a10.92,10.92,0,0,1-6.14,1.88H96.46a10.92,10.92,0,0,1-6.14-1.88c-5.08-3.44-12.62-8.39-19.53-19.25-8.41-13.21-2.75-141.56-1.27-171"/><path class="cls-8" d="M159.83,181.4c1.48,29.44,5.14,74.79-3.27,88-6.91,10.86-14.45,15.81-19.53,19.25a10.92,10.92,0,0,1-6.14,1.88H96.46a10.92,10.92,0,0,1-6.14-1.88c-5.08-3.44-12.62-8.39-19.53-19.25-8.41-13.21-4.75-58.56-3.27-88,0,0,10.54,2.13,14.1,2.13s10.53-2.9,14-2.13c4.17.94,10.76,8.06,15,8.13,4.53.07,11.78-7.1,16.19-8.13,4.61-1.07,14.08,2.21,18.81,2.13C149.21,183.46,159.83,181.4,159.83,181.4Z"/><path class="cls-9" d="M156.83,84.4c1.48,29.44,8.14,171.79-.27,185-6.91,10.86-14.45,15.81-19.53,19.25a10.92,10.92,0,0,1-6.14,1.88H96.46a10.92,10.92,0,0,1-6.14-1.88c-5.08-3.44-12.62-8.39-19.53-19.25-8.41-13.21-1.75-155.56-.27-185"/></g></svg>
