<svg xmlns="http://www.w3.org/2000/svg" width="8cm" height="10.6cm" viewBox="0 0 226.77 300.53"><defs><style>.cls-1,.cls-5{fill:#edaeb7;}.cls-2{fill:#fff;}.cls-3{fill:#ffeab3;stroke:#f38749;}.cls-3,.cls-6{stroke-miterlimit:10;stroke-width:3px;}.cls-4{fill:#f8b54a;}.cls-5{opacity:0.4;}.cls-6{fill:none;stroke:#e6e6e6;stroke-linecap:round;}</style></defs><title>tequila-silverbreeze</title><g id="drinks"><path class="cls-1" d="M167.16,164.51l-8.31,120.74a5.91,5.91,0,0,1-6.06,5.28H73.34a5.89,5.89,0,0,1-6-5.28L59,164.51"/><path class="cls-2" d="M149.85,245.43s-13.07,1.83-17.31,2.94c-2.21.58-6.41,2.39-8.58,3.09-2.48.8-5.82.32-7-2-1.76-3.3-2-7-4.19-13-3.09-8.58-4.9-13.56-4.2-16.73.87-4,8.91-6,11.44-6.61,0,0,13.58-1.77,18-2.66,2.55-.5,9.47.43,10.57,4.84l3.71,19.19,1,5.16A4.75,4.75,0,0,1,149.85,245.43Z"/><path class="cls-2" d="M123.64,285.28s-13.77-.83-18.35-.56c-2.38.14-7.07,1.13-9.44,1.4-2.7.3-6-.87-6.81-3.48-1.13-3.75-.64-7.54-1.63-14.18-1.39-9.43-2.22-14.91-.85-18,1.72-3.88,10.37-4.29,13.1-4.42,0,0,14.28,1,19,1,2.72,0,9.61,2.39,9.84,7.13l-.16,20.44,0,5.5A5,5,0,0,1,123.64,285.28Z"/><path class="cls-2" d="M104.94,226.15S91.81,221,87.27,219.79c-2.36-.61-7.23-1.13-9.62-1.63-2.73-.56-5.59-2.75-5.53-5.54.09-4,1.77-7.53,2.92-14.3,1.63-9.62,2.56-15.21,4.87-17.79,2.9-3.23,11.45-.89,14.14-.15,0,0,13.58,5.48,18.21,7,2.65.87,8.59,5.38,7.31,10.06L113,217.27l-1.78,5.33A5.09,5.09,0,0,1,104.94,226.15Z"/><path class="cls-2" d="M148.54,195.49s-10.75,3-14.19,4.46c-1.78.74-5.1,2.75-6.84,3.59-2,1-4.85.93-6.15-.88-1.88-2.6-2.53-5.66-5.07-10.53-3.62-6.93-5.73-10.95-5.52-13.71.27-3.46,6.78-6.08,8.83-6.9,0,0,11.19-3,14.85-4.3,2.08-.72,8-.71,9.45,2.9L149.3,186l1.45,4.26A4,4,0,0,1,148.54,195.49Z"/><path class="cls-3" d="M35.38,207.49a39.25,39.25,0,0,1,52-58.65c.67.53,1.31,1.09,1.93,1.66"/><path class="cls-4" d="M62.53,175.45l-.45-.81c-.36-.65-8.76-16.15-8.53-25.22.11-3.62,2.85-5.64,8.15-6a10.16,10.16,0,0,1,7.31,2,5.56,5.56,0,0,1,1.94,4c.5,9.05-7.64,24.54-8,25.19Z"/><path class="cls-4" d="M87.17,152.77,65.8,175.35c.52-1.72,5.42-17.7,11.77-23.72C80.1,149.22,83.33,149.61,87.17,152.77Z"/><path class="cls-4" d="M58.31,183.27l-20.8,22a9.64,9.64,0,0,1-3-5.94A5.57,5.57,0,0,1,36,195.08C41.17,189.24,54.37,184.57,58.31,183.27Z"/><path class="cls-4" d="M58.84,179.88l-.81.45c-.65.35-16.15,8.76-25.21,8.52a5.26,5.26,0,0,1-3.59-1.39c-1.4-1.33-2.21-3.58-2.45-6.75a10.17,10.17,0,0,1,2-7.32,5.59,5.59,0,0,1,4-1.93c9.05-.5,24.54,7.63,25.19,8Z"/><path class="cls-4" d="M59.77,176.9l-.9-.25c-.69-.2-16.61-4.94-23.26-11.23l-.59-.58c-2.48-2.63-2-6,1.49-10a10.11,10.11,0,0,1,6.59-3.74,5.58,5.58,0,0,1,4.23,1.48c6.73,6,12,22.75,12.16,23.46Z"/><path class="cls-5" d="M167.16,164.51l-8.31,120.74a5.91,5.91,0,0,1-6.06,5.28H73.34a5.89,5.89,0,0,1-6-5.28L59,164.51"/><path class="cls-6" d="M167.16,155l-8.31,129.87a6.08,6.08,0,0,1-6.06,5.68H73.34a6.06,6.06,0,0,1-6-5.68L59,155"/></g></svg>
