<svg xmlns="http://www.w3.org/2000/svg" width="8cm" height="10.6cm" viewBox="0 0 226.77 300.53"><defs><style>.cls-1,.cls-4{fill:#f2f2f2;}.cls-2{fill:#f0f4d1;stroke:#bbd178;}.cls-2,.cls-3,.cls-5,.cls-6{stroke-miterlimit:10;}.cls-2,.cls-6{stroke-width:3px;}.cls-3{fill:#d3e1a3;stroke:#d3e1a3;}.cls-4{opacity:0.3;}.cls-5{fill:#e6e6e6;stroke-width:2px;}.cls-5,.cls-6{stroke:#e6e6e6;}.cls-6{fill:none;stroke-linecap:round;}</style></defs><title>tequila-magarita</title><g id="drinks"><path class="cls-1" d="M118,180.22c-.31,13.68-1.49,85.32,2.06,93.31,2.62,5.9,19.62,9.93,30,13,5.46,1.61,8,4,8,4H68.72s2.54-2.39,8-4c10.38-3.07,27.38-7.1,30-13,3.55-8,2.37-79.63,2.06-93.31a8.24,8.24,0,0,0-1.69-4.82s-16.55-9.87-21.55-15.87c-6.93-8.32-6.26-21.7-9.93-26-4.19-4.87-12.8-6.09-21.06-14.69-8-8.34-8.83-22.34-8.83-22.34H181.06s-.82,14-8.83,22.34c-8.25,8.6-16.87,9.82-21,14.69-3.67,4.27-3,17.65-9.94,26-5,6-21.55,15.87-21.55,15.87A8.24,8.24,0,0,0,118,180.22Z"/><path class="cls-1" d="M118,180.22c-.31,13.68-1.49,85.32,2.06,93.31,2.62,5.9,19.62,9.93,30,13,5.46,1.61,8,4,8,4H68.72s2.54-2.39,8-4c10.38-3.07,27.38-7.1,30-13,3.55-8,2.37-79.63,2.06-93.31a8.24,8.24,0,0,0-1.69-4.82s-16.55-9.87-21.55-15.87c-6.93-8.32-6.26-21.7-9.93-26-4.19-4.87-12.8-6.09-21.06-14.69-8-8.34-8.83-22.34-8.83-22.34l7.9-2,10,2,12-1,9,1h7l6-2,8.83,2,16.17-2,18.94,2,8.06-2,7.72,2,11.28-1,4,1,5,2,3.44-2s-.82,14-8.83,22.34c-8.25,8.6-16.87,9.82-21,14.69-3.67,4.27-3,17.65-9.94,26-5,6-21.55,15.87-21.55,15.87A8.24,8.24,0,0,0,118,180.22Z"/><circle class="cls-2" cx="183.37" cy="81.78" r="39.25"/><path class="cls-3" d="M179.88,78s-3.35-17.69-9.36-24.42c-2.8-3.15-7.29-1.71-10.29,1.07s-4.95,5.92-2.53,9.12C163.14,71,179.88,78,179.88,78Z"/><path class="cls-3" d="M183.56,76.66s10.14-14.89,10.66-23.89c.23-4.21-4-6.37-8-6.52s-7.69.68-8.25,4.66C176.68,59.86,183.56,76.66,183.56,76.66Z"/><path class="cls-3" d="M187.12,78.29s17.7-3.35,24.43-9.36c3.15-2.81,1.71-7.29-1.07-10.29s-5.92-5-9.12-2.54C194.14,61.55,187.12,78.29,187.12,78.29Z"/><path class="cls-3" d="M188.49,82s14.89,10.14,23.89,10.65c4.21.24,6.36-4,6.52-8s-.68-7.69-4.66-8.25C205.29,75.09,188.49,82,188.49,82Z"/><path class="cls-3" d="M186.86,85.53s3.35,17.7,9.36,24.43c2.8,3.15,7.29,1.71,10.29-1.07s5-5.92,2.53-9.13C203.6,92.55,186.86,85.53,186.86,85.53Z"/><path class="cls-3" d="M183.18,86.9S173,101.78,172.53,110.79c-.24,4.21,3.95,6.36,8,6.52s7.69-.69,8.25-4.66C190.06,103.7,183.18,86.9,183.18,86.9Z"/><path class="cls-3" d="M179.62,85.26s-17.7,3.36-24.43,9.36c-3.15,2.81-1.71,7.3,1.07,10.3s5.92,5,9.13,2.53C172.6,102,179.62,85.26,179.62,85.26Z"/><path class="cls-3" d="M178.25,81.59s-14.88-10.15-23.89-10.66c-4.21-.24-6.36,3.95-6.52,8-.15,3.94.68,7.69,4.66,8.25C161.45,88.46,178.25,81.59,178.25,81.59Z"/><path class="cls-4" d="M118,180.22c-.31,13.68-1.49,85.32,2.06,93.31,2.62,5.9,19.62,9.93,30,13,5.46,1.61,8,4,8,4H68.72s2.54-2.39,8-4c10.38-3.07,27.38-7.1,30-13,3.55-8,2.37-79.63,2.06-93.31a8.24,8.24,0,0,0-1.69-4.82s-16.55-9.87-21.55-15.87c-6.93-8.32-6.26-21.7-9.93-26-4.19-4.87-12.8-6.09-21.06-14.69-8-8.34-8.83-22.34-8.83-22.34l7.9-2,10,2,12-1,9,1h7l6-2,8.83,2,16.17-2,18.94,2,8.06-2,7.72,2,11.28-1,4,1,5,2,3.44-2s-.82,14-8.83,22.34c-8.25,8.6-16.87,9.82-21,14.69-3.67,4.27-3,17.65-9.94,26-5,6-21.55,15.87-21.55,15.87A8.24,8.24,0,0,0,118,180.22Z"/><path class="cls-5" d="M131.77,166.93c-1.52.69-14.58,9.93-14.61,11.61-.3,13.09-1.43,87.07,2,94.72,2.5,5.65,18.77,9.5,28.71,12.44a20.09,20.09,0,0,1,7.65,3.83H71.28a20.09,20.09,0,0,1,7.66-3.83c9.93-2.94,26.2-6.79,28.7-12.44,3.4-7.65,2.27-81.63,2-94.72,0-1.68-13.11-10.89-14.62-11.61,0,0,13.62,7,18.39,7C118.62,173.93,131.77,166.93,131.77,166.93Z"/><path class="cls-6" d="M182.06,88.53s-1.82,22-9.83,30.34c-8.25,8.6-16.87,9.82-21,14.69-3.67,4.27-3,17.65-9.94,26-5,6-21.55,15.87-21.55,15.87a8.24,8.24,0,0,0-1.69,4.82c-.31,13.68-1.49,85.32,2.06,93.31,2.62,5.9,19.62,9.93,30,13,5.46,1.61,8,4,8,4H68.72s2.54-2.39,8-4c10.38-3.07,27.38-7.1,30-13,3.55-8,2.37-79.63,2.06-93.31a8.24,8.24,0,0,0-1.69-4.82s-16.55-9.87-21.55-15.87c-6.93-8.32-6.26-21.7-9.93-26-4.19-4.87-12.8-6.09-21.06-14.69-8-8.34-9.83-30.34-9.83-30.34"/></g></svg>
