<svg xmlns="http://www.w3.org/2000/svg" width="8cm" height="10.6cm" viewBox="0 0 226.77 300.53"><defs><style>.cls-1,.cls-5,.cls-7{fill:#f4504d;}.cls-2{fill:#bbd178;}.cls-3{fill:#fff5de;stroke:#ffe400;}.cls-3,.cls-8{stroke-miterlimit:10;stroke-width:3px;}.cls-4{fill:#ffeab3;}.cls-5{opacity:0.5;}.cls-6{fill:#fff;}.cls-7{opacity:0.3;}.cls-8{fill:none;stroke:#e6e6e6;stroke-linecap:round;}</style></defs><title>vodka-bloodymary</title><g id="drinks"><polygon class="cls-1" points="166.62 116.21 158.54 290.53 67.7 290.53 59.62 116.21 166.62 116.21"/><path class="cls-2" d="M146.54,83.31s-1.85-2.21-1.85-2.21l3.35-.63-5.3-7.53,4.07.89-5-3.4a1,1,0,0,1-.91-1.25l-7.65-1a1,1,0,0,0-.9-1.25l-4-.4,1.24-.86a1,1,0,0,0-.33-1.76l-1.47-.34.74-.95a.92.92,0,0,0-.27-1.39l-1.71-1a.94.94,0,0,1,0-1.63l.89-.62a1,1,0,0,0,.25-1.41l-1.57-1.85,3.75.37a1.12,1.12,0,0,0,1.29-1.21l-.3-1.59,3.45,1.23c.64.23,9.29-.18,9.48-.79.12-.37.64-.57,2-.24a7.37,7.37,0,0,1,3.49,2.26,1.16,1.16,0,0,0,2-.89l-2.4-12.67c-1.06-5.56,2.33-12,2.74-12.7a1.1,1.1,0,0,1,.09-.14L153,26.59l2.24,2.64L155,27.75l2.52,4.12,1.39-1.8-.59,3.37a1,1,0,0,0,1.3,1.09l.26-.05a1,1,0,0,1,1.3,1.1l-.59,3.36,3.07-2.11-.55,6.22,3.07-2.11-.55,6.23,1.39-1.8-.55,6.23,1.39-1.79L167.3,56l1.67-.31-2.5,5.07,1.8-.35a1,1,0,0,1,1.3,1.1l-.11.63c-.16.92,1,1.48,1.83.87a47,47,0,0,1,6.9-4.48c4.75-2.43,12.84-5.5,15.91-7.61.73-.5,1.37-.9,1.94-1.22,1-.53,2.06.3,1.61,1.21l-1.31,2.64,1.68-.31-2.79,3.59,3.35-.64-1.4,1.8,5-1-1.4,1.8,5.31.52-.92,1.19a.92.92,0,0,0,0,1.17L206.3,63a1,1,0,0,1-.25,1.41l-2.16,1.49,1.68-.32-4.47,3.91,1.68-.32L198,71.63l.28,1.48-1.88-.43A1.13,1.13,0,0,0,195,73.86a1.12,1.12,0,0,1-1.29,1.21l-3.75-.37.28,1.48-3.38-.78a1.14,1.14,0,0,0-.52,0l-4.76.9,8.94,1.37-3.07,2.11,7,.21L193,81.77l5.31.53-1.4,1.79,3.81,1.37a.94.94,0,0,1,.21,1.72l-1.5,1,5.31.52-1.25.86a1,1,0,0,0,.34,1.75l1.47.35-1.68.31,3,1.78a.92.92,0,0,1,.27,1.39l-.08.1a.91.91,0,0,0,.26,1.39l3,1.78-1.55.29a1,1,0,0,0-.72,1.61l1.16,1.37a21.38,21.38,0,0,0-5.59-2c-3.63-.84-32.4-8-36.59-11.83-2-.42-4.2,4.14-5.6,7-1.81,3.7-78.67,185.4-78.95,185.59l1.3,4.12c-.28.19-2.07-.77-2.41-.85-.08,0-1.61.32-1.67.32s-1.4-.41-1.43-.41-.74-2.23-.81-2.23c-.33,0-2.55,2.13-3.07,2.11-.38-.41-.19-2.5-.56-2.95-.52-.64,72.29-182.29,72.23-182.34Z"/><path class="cls-3" d="M148.56,141.4a39.25,39.25,0,0,1,36.76-69.24c.77.36,1.53.75,2.26,1.16"/><path class="cls-4" d="M167.41,103.87l-.63-.68c-.5-.55-12.31-13.64-14.21-22.51-.75-3.54,1.43-6.15,6.49-7.78a10.26,10.26,0,0,1,7.59.24,5.59,5.59,0,0,1,2.83,3.47c2.61,8.68-1.65,25.64-1.85,26.36Z"/><path class="cls-4" d="M186,76l-15.46,27c.09-1.8,1.1-18.48,5.85-25.83C178.33,74.25,181.55,73.86,186,76Z"/><path class="cls-4" d="M165.14,112.46l-15,26.25a9.64,9.64,0,0,1-4.35-5.06,5.58,5.58,0,0,1,.44-4.46C149.89,122.3,161.62,114.65,165.14,112.46Z"/><path class="cls-4" d="M164.87,109l-.68.63c-.55.5-13.64,12.31-22.51,14.21a5.29,5.29,0,0,1-3.81-.51c-1.68-1-3-3-4-6a10.26,10.26,0,0,1,.24-7.59,5.65,5.65,0,0,1,3.47-2.83c8.68-2.61,25.64,1.65,26.36,1.85Z"/><path class="cls-4" d="M165.07,105.93l-.93,0c-.72,0-17.31-.88-25.25-5.44-.24-.13-.48-.28-.71-.43-3-2-3.35-5.36-.91-10.09a10.15,10.15,0,0,1,5.53-5.18,5.59,5.59,0,0,1,4.46.45c8,4.28,17,19.29,17.33,19.94Z"/><polygon class="cls-5" points="166.62 116.21 158.54 290.53 67.7 290.53 59.62 116.21 166.62 116.21"/><path class="cls-6" d="M148.07,137.41s-10.49,1.82-13.89,2.83c-1.76.53-5.11,2.1-6.84,2.72-2,.71-4.69.41-5.74-1.41-1.51-2.61-1.82-5.55-3.73-10.36-2.72-6.85-4.31-10.82-3.83-13.39.6-3.22,7-5.06,9.06-5.64,0,0,10.91-1.79,14.49-2.62,2-.48,7.65.09,8.66,3.62l3.5,15.38.94,4.14A3.84,3.84,0,0,1,148.07,137.41Z"/><path class="cls-6" d="M119.07,168.58s-9.55,5.79-12.49,8.07c-1.52,1.19-4.19,4-5.64,5.28-1.67,1.44-4.43,2.19-6.15.81-2.48-2-3.89-4.73-7.6-8.7-5.28-5.65-8.35-8.92-8.86-11.62-.64-3.38,4.94-7.64,6.69-9,0,0,10-5.92,13.17-8.1,1.82-1.25,7.51-2.83,9.84.23l9.3,13.69,2.5,3.69A4,4,0,0,1,119.07,168.58Z"/><path class="cls-6" d="M142.43,171.51s-10.59-1.12-14.13-1.08c-1.85,0-5.49.63-7.33.75-2.1.14-4.62-.89-5.14-2.93-.73-2.93-.22-5.83-.74-11-.75-7.33-1.19-11.58,0-13.92,1.46-2.94,8.15-3,10.25-3,0,0,11,1.27,14.66,1.45,2.1.1,7.33,2.18,7.34,5.85l-.85,15.76-.22,4.23A3.83,3.83,0,0,1,142.43,171.51Z"/><path class="cls-6" d="M94.62,148.17s-10.6-1-14.14-.88c-1.84.05-5.48.7-7.32.85-2.1.17-4.63-.82-5.17-2.85-.78-2.92-.31-5.83-.91-11-.85-7.32-1.36-11.56-.22-13.92,1.42-3,8.11-3.06,10.21-3.1,0,0,11,1.11,14.68,1.24,2.1.07,7.36,2.08,7.42,5.74L98.55,140l-.16,4.24A3.85,3.85,0,0,1,94.62,148.17Z"/><polygon class="cls-7" points="166.62 116.21 158.54 290.53 67.7 290.53 59.62 116.21 166.62 116.21"/><polyline class="cls-8" points="167.62 92.21 158.54 290.53 67.7 290.53 58.62 92.21"/></g></svg>
