<svg xmlns="http://www.w3.org/2000/svg" width="8cm" height="10.6cm" viewBox="0 0 226.77 300.53"><defs><style>.cls-1{fill:#9b7a6f;}.cls-2{fill:#f2f2f2;}.cls-3{fill:#e6e6e6;stroke-width:2px;}.cls-3,.cls-4{stroke:#e6e6e6;}.cls-3,.cls-4,.cls-5{stroke-miterlimit:10;}.cls-4{fill:none;stroke-linecap:round;stroke-width:3px;}.cls-5{fill:#3d210c;stroke:#3d210c;}.cls-6{fill:#6d4838;}</style></defs><title>vodka-espresso martini</title><g id="drinks"><path class="cls-1" d="M147.84,286.7a20.09,20.09,0,0,1,7.65,3.83H71.28a20.09,20.09,0,0,1,7.66-3.83c9.93-2.94,26.2-6.79,28.7-12.44,3.4-7.65,2.27-81.63,2-94.72a7.91,7.91,0,0,0-1.62-4.61l-52.69-70.3H171.46l-52.69,70.3a7.83,7.83,0,0,0-1.61,4.61c-.3,13.09-1.43,87.07,2,94.72C121.63,279.91,137.9,283.76,147.84,286.7Z"/><polyline class="cls-2" points="60.48 110.52 55.31 103.63 171.46 103.63 166.36 110.52"/><path class="cls-3" d="M147.84,286.7a20.09,20.09,0,0,1,7.65,3.83H71.28a20.09,20.09,0,0,1,7.66-3.83c9.93-2.94,26.2-6.79,28.7-12.44,3.4-7.65,2.27-81.63,2-94.72a7.91,7.91,0,0,0-1.62-4.61L84.83,143.59s19.39,24,28.56,24,29.31-25,29.31-25l-23.93,32.34a7.83,7.83,0,0,0-1.61,4.61c-.3,13.09-1.43,87.07,2,94.72C121.63,279.91,137.9,283.76,147.84,286.7Z"/><path class="cls-4" d="M178.46,95.63l-59.69,79.3a7.83,7.83,0,0,0-1.61,4.61c-.3,13.09-1.43,87.07,2,94.72,2.5,5.65,18.77,9.5,28.71,12.44a20.09,20.09,0,0,1,7.65,3.83H71.28a20.09,20.09,0,0,1,7.66-3.83c9.93-2.94,26.2-6.79,28.7-12.44,3.4-7.65,2.27-81.63,2-94.72a7.91,7.91,0,0,0-1.62-4.61L48.31,95.63"/><ellipse class="cls-5" cx="121.38" cy="104.4" rx="6.28" ry="3.49" transform="translate(-29.81 51.74) rotate(-21.5)"/><path class="cls-6" d="M117.26,106.49a9.59,9.59,0,0,1,4-1.64c.7-.14,1.4-.22,2.09-.33a2.12,2.12,0,0,0,1.58-.87c.26-.41-.39-.78-.65-.38s-1.11.52-1.65.6a20.64,20.64,0,0,0-2.06.36,9.67,9.67,0,0,0-3.74,1.61c-.38.29,0,.94.38.65Z"/><ellipse class="cls-5" cx="104.38" cy="103.4" rx="3.49" ry="6.28" transform="translate(-36.22 146.05) rotate(-61.6)"/><path class="cls-6" d="M102.15,103.61a9.34,9.34,0,0,1,3.72,1.93c.53.42,1,.88,1.55,1.34a2.36,2.36,0,0,0,1.79.8c.47-.06.47-.81,0-.75-.7.09-1.22-.55-1.69-1s-1-.89-1.57-1.3a9.72,9.72,0,0,0-3.6-1.78c-.47-.11-.67.62-.2.73Z"/><ellipse class="cls-5" cx="112.24" cy="101.42" rx="6.58" ry="4.08" transform="translate(-19.92 27.81) rotate(-12.98)"/><path class="cls-6" d="M117,100a9,9,0,0,0-4.06.75c-.63.26-1.24.55-1.83.86s-1.4,1-2.06.64c-.43-.21-.81.43-.38.64a2.08,2.08,0,0,0,1.92-.16c.66-.32,1.29-.69,2-1a9.17,9.17,0,0,1,4.45-1c.48,0,.48-.72,0-.75Z"/><ellipse class="cls-5" cx="131.37" cy="290.34" rx="6.58" ry="4.08" transform="translate(-61.87 36.94) rotate(-12.98)"/><path class="cls-6" d="M136.14,288.94a9.17,9.17,0,0,0-4.07.76c-.62.25-1.23.54-1.83.85s-1.4,1-2.05.64c-.44-.21-.82.44-.38.65a2.11,2.11,0,0,0,1.92-.16c.65-.33,1.28-.7,2-1a9.1,9.1,0,0,1,4.46-1c.48,0,.48-.71,0-.75Z"/><ellipse class="cls-5" cx="142.41" cy="292.35" rx="3.67" ry="6.27" transform="translate(-182.36 308.87) rotate(-66.94)"/><path class="cls-6" d="M146.92,294a9.43,9.43,0,0,0-3.74-1.77c-.68-.17-1.38-.29-2.07-.4s-1.32-.1-1.62-.64a.38.38,0,0,0-.65.38,1.92,1.92,0,0,0,1.41.88c.7.14,1.42.22,2.13.37a9.2,9.2,0,0,1,4,1.71c.37.3.91-.22.53-.53Z"/></g></svg>