<svg xmlns="http://www.w3.org/2000/svg" width="8cm" height="10.6cm" viewBox="0 0 226.77 300.53"><defs><style>.cls-1,.cls-4{fill:#f1818d;}.cls-2{fill:#f0f4d1;stroke:#bbd178;}.cls-2,.cls-5,.cls-6{stroke-miterlimit:10;}.cls-2,.cls-6{stroke-width:3px;}.cls-3{fill:#d3e1a3;}.cls-4{opacity:0.7;}.cls-5{fill:#e6e6e6;stroke-width:2px;}.cls-5,.cls-6{stroke:#e6e6e6;}.cls-6{fill:none;stroke-linecap:round;}</style></defs><title>vodka-cosmopolitan</title><g id="drinks"><path class="cls-1" d="M147.84,286.7a20.09,20.09,0,0,1,7.65,3.83H71.28a20.09,20.09,0,0,1,7.66-3.83c9.93-2.94,26.2-6.79,28.7-12.44,3.4-7.65,2.27-81.63,2-94.72a7.91,7.91,0,0,0-1.62-4.61l-53.69-70.3H172.46l-53.69,70.3a7.83,7.83,0,0,0-1.61,4.61c-.3,13.09-1.43,87.07,2,94.72C121.63,279.91,137.9,283.76,147.84,286.7Z"/><path class="cls-2" d="M49.75,152A39.25,39.25,0,0,1,81.36,80.25q1.2.47,2.34,1"/><path class="cls-3" d="M65.81,113.18l-.67-.63C64.6,112,51.86,99.84,49.32,91.14c-1-3.48,1-6.24,5.91-8.24a10.24,10.24,0,0,1,7.58-.31,5.62,5.62,0,0,1,3.08,3.26c3.23,8.46.22,25.69.08,26.42Z"/><path class="cls-3" d="M82.35,84.06l-13.46,28c0-1.8-.24-18.51,4-26.18C74.54,82.84,77.73,82.22,82.35,84.06Z"/><path class="cls-3" d="M64.18,121.92,51.09,149.19a9.61,9.61,0,0,1-4.71-4.72A5.55,5.55,0,0,1,46.5,140C49.68,132.84,60.82,124.36,64.18,121.92Z"/><path class="cls-3" d="M63.65,118.53l-.63.67c-.51.54-12.71,13.28-21.41,15.81a5.25,5.25,0,0,1-3.84-.22c-1.74-.84-3.2-2.74-4.4-5.68a10.24,10.24,0,0,1-.31-7.58,5.62,5.62,0,0,1,3.26-3.08c8.46-3.24,25.69-.22,26.42-.08Z"/><path class="cls-3" d="M63.63,115.41l-.93,0c-.72,0-17.33.38-25.58-3.58-.26-.12-.5-.25-.74-.38-3.17-1.74-3.73-5.11-1.65-10a10.16,10.16,0,0,1,5.14-5.57,5.59,5.59,0,0,1,4.48.12c8.25,3.69,18.32,18,18.74,18.63Z"/><path class="cls-4" d="M147.84,286.7a20.09,20.09,0,0,1,7.65,3.83H71.28a20.09,20.09,0,0,1,7.66-3.83c9.93-2.94,26.2-6.79,28.7-12.44,3.4-7.65,2.27-81.63,2-94.72a7.91,7.91,0,0,0-1.62-4.61l-53.69-70.3H172.46l-53.69,70.3a7.83,7.83,0,0,0-1.61,4.61c-.3,13.09-1.43,87.07,2,94.72C121.63,279.91,137.9,283.76,147.84,286.7Z"/><path class="cls-5" d="M147.84,286.7a20.09,20.09,0,0,1,7.65,3.83H71.28a20.09,20.09,0,0,1,7.66-3.83c9.93-2.94,26.2-6.79,28.7-12.44,3.4-7.65,2.27-81.63,2-94.72a7.91,7.91,0,0,0-1.62-4.61L84.83,143.59s19.39,24,28.56,24,29.31-25,29.31-25l-23.93,32.34a7.83,7.83,0,0,0-1.61,4.61c-.3,13.09-1.43,87.07,2,94.72C121.63,279.91,137.9,283.76,147.84,286.7Z"/><path class="cls-6" d="M178.46,95.63l-59.69,79.3a7.83,7.83,0,0,0-1.61,4.61c-.3,13.09-1.43,87.07,2,94.72,2.5,5.65,18.77,9.5,28.71,12.44a20.09,20.09,0,0,1,7.65,3.83H71.28a20.09,20.09,0,0,1,7.66-3.83c9.93-2.94,26.2-6.79,28.7-12.44,3.4-7.65,2.27-81.63,2-94.72a7.91,7.91,0,0,0-1.62-4.61L48.31,95.63"/></g></svg>
